<svg xmlns="http://www.w3.org/2000/svg" xmlns:xlink="http://www.w3.org/1999/xlink" width="39" height="39" viewBox="0 0 39 39">
  <defs>
    <ellipse id="b" cx="12.941" cy="12.735" rx="12.941" ry="12.735"/>
    <filter id="a" width="160.3%" height="161.2%" x="-30.1%" y="-30.6%" filterUnits="objectBoundingBox">
      <feMorphology in="SourceAlpha" operator="dilate" radius=".3" result="shadowSpreadOuter1"/>
      <feOffset in="shadowSpreadOuter1" result="shadowOffsetOuter1"/>
      <feGaussianBlur in="shadowOffsetOuter1" result="shadowBlurOuter1" stdDeviation="2.5"/>
      <feComposite in="shadowBlurOuter1" in2="SourceAlpha" operator="out" result="shadowBlurOuter1"/>
      <feColorMatrix in="shadowBlurOuter1" values="0 0 0 0 0.0588235294 0 0 0 0 0.850980392 0 0 0 0 0.717647059 0 0 0 0.379104393 0"/>
    </filter>
  </defs>
  <g fill="none" fill-rule="evenodd" transform="translate(6.118 6.53)">
    <use fill="black" filter="url(#a)" xlink:href="#b"/>
    <use fill="#030413" stroke="#0FD9B7" stroke-width=".6" xlink:href="#b"/>
    <g fill-rule="nonzero" transform="translate(4.112 3.95)">
      <ellipse cx="8.834" cy="8.77" fill="#DC4E41" rx="8.834" ry="8.617"/>
      <g transform="translate(2.992 5.53)">
        <path fill="#DC4E41" d="M.0836166059 3.62614823C.0522800625 5.10867884 1.09914107 6.52347261 2.53920484 6.98488185 3.895652 7.42939527 5.56341749 7.09685499 6.46603592 5.96376047 7.12504815 5.16981096 7.27480219 4.1113652 7.20346825 3.12249946 6.04181156 3.11236198 4.88015487 3.11574114 3.72023035 3.11743072 3.71834071 3.521087 3.72023035 3.9232073 3.72196252 4.32686359 4.41750781 4.34560258 5.11321057 4.33700107 5.80875586 4.35067132 5.63317673 4.93757035 5.23320276 5.48376584 4.62615565 5.69573147 3.45410593 6.19953383 1.9586127 5.5413652 1.5898178 4.34206982 1.14464992 3.19361547 1.8734214 1.80769817 3.07665018 1.47362191 3.82274336 1.21757358 4.59135476 1.50587755 5.22973842 1.88419012 5.55318194 1.58897422 5.85583941 1.27348335 6.15314289.954613319 5.42783576.362645542 4.49577043-.000307196563 3.53756507.0794103115 1.65752993.101221267.0122826653 1.79418153.0836166059 3.62614823zM9.46426601 2.09938131C9.46080167 2.43699033 9.45717985 2.77628894 9.45544768 3.11374436 9.1075963 3.11712352 8.76163457 3.1188131 8.41551536 3.12050269 8.41551536 3.45811171 8.41551536 3.79387755 8.41551536 4.13148657 8.76163457 4.13317615 9.10948594 4.13486574 9.45544768 4.1383985 9.45891202 4.47600752 9.45891202 4.81346294 9.46237637 5.15276155 9.8067634 5.15276155 10.1528826 5.15107197 10.4988444 5.15276155 10.500734 4.81346294 10.5023087 4.47600752 10.5059305 4.13670892 10.8518922 4.13501933 11.1997436 4.13332975 11.5458628 4.13164017 11.5458628 3.79403115 11.5458628 3.45826531 11.5458628 3.12065628 11.1999011 3.1189667 10.8520497 3.11727712 10.5059305 3.11389796 10.5040409 2.77628894 10.500734 2.43699033 10.4988444 2.09953491 10.1528826 2.09938131 9.80849558 2.09938131 9.46426601 2.09938131z"/>
        <g fill="#FFFFFF">
          <path d="M.0836166059 3.62614823C.0122826653 1.79418153 1.65737246.101221267 3.5374076.0792567132 4.49561296-.000460794844 5.42783576.362491944 6.15298542.954459721 5.85552447 1.27348335 5.552867 1.58882062 5.22958095 1.88403652 4.59119729 1.50572395 3.82258589 1.21741998 3.07649271 1.47346831 1.87310645 1.80769817 1.14433498 3.19361547 1.58966033 4.34191622 1.95845523 5.5412116 3.45394846 6.19938024 4.62599818 5.69557787 5.23288782 5.48361224 5.63301926 4.93741676 5.80859839 4.35051772 5.1130531 4.33700107 4.41735034 4.34544898 3.72180505 4.32670999 3.72007288 3.92305371 3.71834071 3.5209334 3.72007288 3.11727712 4.8799974 3.11558754 6.04165409 3.11220838 7.20331078 3.12234586 7.27464472 4.1113652 7.12504815 5.16981096 6.46587845 5.96360687 5.56326002 7.0967014 3.895652 7.42924168 2.53904737 6.98472825 1.09929854 6.52347261.0522800625 5.10867884.0836166059 3.62614823zM9.46426601 2.09938131C9.80865305 2.09938131 10.1528826 2.09938131 10.4988444 2.09938131 10.500734 2.43699033 10.5040409 2.77628894 10.5059305 3.11374436 10.8518922 3.11712352 11.1997436 3.1188131 11.5458628 3.12050269 11.5458628 3.45811171 11.5458628 3.79387755 11.5458628 4.13148657 11.1999011 4.13317615 10.8520497 4.13486574 10.5059305 4.13655532 10.5024662 4.47585392 10.500734 4.81330934 10.4988444 5.15260795 10.1528826 5.15091837 9.80660593 5.15260795 9.46237637 5.15260795 9.4590695 4.81330934 9.4590695 4.47585392 9.45544768 4.1382449 9.10948594 4.13471214 8.76163457 4.13317615 8.41551536 4.13133298 8.41551536 3.79372395 8.41551536 3.45795811 8.41551536 3.12034909 8.76163457 3.11865951 9.10775377 3.11696992 9.45544768 3.11359076 9.45717985 2.77628894 9.4606442 2.43699033 9.46426601 2.09938131z"/>
        </g>
      </g>
    </g>
  </g>
</svg>
