<svg xmlns="http://www.w3.org/2000/svg" xmlns:xlink="http://www.w3.org/1999/xlink" width="159" height="31" viewBox="0 0 159 31">
  <defs>
    <path id="a" d="M12.4146903,27.9874787 C5.5582508,27.9874787 0,22.3727527 0,15.4466427 C0,8.52053276 5.5582508,2.90580676 12.4146903,2.90580676 C19.2711299,2.90580676 24.8293807,8.52053276 24.8293807,15.4466427 C24.8293807,22.3727527 19.2711299,27.9874787 12.4146903,27.9874787 Z M27.3736856,3.358361 L37.1618957,3.358361 C41.6103371,3.358361 44.982984,5.79318521 44.982984,10.545504 C44.982984,14.1830767 43.0059172,16.6179009 40.0693698,17.5566421 L46.3583858,27.559967 L40.0151353,27.559967 L34.0646833,17.9966751 L32.8397337,17.9966751 L32.8397337,27.559967 L27.3736856,27.559967 L27.3736856,3.358361 Z M32.8397337,14.0950742 L34.6905622,14.0950742 C36.7548489,14.0950742 39.2262029,13.9483966 39.2262029,10.9268617 C39.2262029,7.90532689 36.7548489,7.75864922 34.6905622,7.75864922 L32.8397337,7.75864922 L32.8397337,14.0950742 Z M48.0400044,10.104847 C48.0400044,12.8336505 49.997943,15.0003491 53.2103367,16.5298985 C56.0761775,17.8944458 58.6182176,18.7593906 58.6182176,20.5195017 C58.6182176,22.778321 56.774328,22.8766192 55.0069308,22.8956715 C53.1058211,22.9161589 50.6277546,21.2722959 49.5340467,20.4750117 C49.5340467,20.4750117 47.0848477,25.3236111 47.0848477,25.3236111 C48.4791101,26.2695905 51.7410026,28 55.565377,28 C60.2464048,28 64.6076057,25.9758608 64.6076057,20.1968192 C64.6076057,17.0286067 61.6710582,14.7404601 58.9961911,13.596366 C56.2631773,12.4229656 53.3897387,11.4548972 53.3897387,10.105471 C53.3897387,8.78539285 54.3782927,7.9346541 56.2390663,7.9346541 C58.7104203,7.9346541 61.7001315,9.60678359 61.7001315,9.60678359 L63.9098053,5.20647457 C63.9098053,5.20647457 60.2222937,2.91832802 55.8610928,2.91832802 C51.9941586,2.91832802 48.0400044,5.79318521 48.0400044,10.104847 Z M98.5183569,12.5402952 L98.5765035,12.5402952 L108.112999,27.559967 L113.579047,27.559967 L113.579047,3.358361 L108.112999,3.358361 L108.112999,18.3780328 L108.054852,18.3780328 L98.5183569,3.358361 L93.0523294,3.358361 L93.0523294,27.559967 L98.5183569,27.559967 L98.5183569,12.5402952 Z M115.971335,24.9539426 C115.971335,26.5527749 117.252598,27.8470617 118.835343,27.8470617 C120.443187,27.8470617 121.724451,26.5527749 121.724451,24.9539426 C121.724451,23.3297558 120.443187,22.035469 118.835343,22.035469 C117.252598,22.035469 115.971335,23.3297558 115.971335,24.9539426 Z M130.273401,3.08014768 C130.273401,4.78156278 128.906874,6.16031615 127.220561,6.16031615 C125.534227,6.16031615 124.16772,4.78156278 124.16772,3.08014768 C124.16772,1.37873257 125.534227,0 127.220561,0 C128.906874,0 130.273401,1.37873257 130.273401,3.08014768 Z M124.574767,7.75864922 L129.720967,7.75864922 L129.720967,27.559967 L124.574767,27.559967 L124.574767,7.75864922 Z M12.4146697,22.8001397 C16.2609726,22.8001397 19.3790223,19.5134743 19.3790223,15.459164 C19.3790223,11.4048537 16.2609726,8.11818837 12.4146697,8.11818837 C8.56838745,8.11818837 5.45033779,11.4048537 5.45033779,15.459164 C5.45033779,19.5134743 8.56838745,22.8001397 12.4146697,22.8001397 Z M78.2729215,28 C71.4164819,28 65.8582311,22.385274 65.8582311,15.459164 C65.8582311,8.53305403 71.4164819,2.91832802 78.2729215,2.91832802 C85.129361,2.91832802 90.6875912,8.53305403 90.6875912,15.459164 C90.6875912,22.385274 85.129361,28 78.2729215,28 Z M78.2729009,22.8001397 C82.1192038,22.8001397 85.2372328,19.5134743 85.2372328,15.459164 C85.2372328,11.4048537 82.1192038,8.11818837 78.2729009,8.11818837 C74.426598,8.11818837 71.3085689,11.4048537 71.3085689,15.459164 C71.3085689,19.5134743 74.426598,22.8001397 78.2729009,22.8001397 Z M144.58533,27.9874787 C137.728891,27.9874787 132.17064,22.3727527 132.17064,15.4466427 C132.17064,8.52053276 137.728891,2.90580676 144.58533,2.90580676 C151.44177,2.90580676 157,8.52053276 157,15.4466427 C157,22.3727527 151.44177,27.9874787 144.58533,27.9874787 Z M144.58531,22.8001397 C148.431613,22.8001397 151.549642,19.5134743 151.549642,15.459164 C151.549642,11.4048537 148.431613,8.11818837 144.58531,8.11818837 C140.739007,8.11818837 137.620978,11.4048537 137.620978,15.459164 C137.620978,19.5134743 140.739007,22.8001397 144.58531,22.8001397 Z"/>
  </defs>
  <g fill="none" fill-rule="evenodd" transform="translate(1 2)">
    <mask id="b" fill="white">
      <use xlink:href="#a"/>
    </mask>
    <polygon fill="#FFFFFF" points="-1 -1 158 -1 158 29 -1 29" mask="url(#b)"/>
  </g>
</svg>
