<svg xmlns="http://www.w3.org/2000/svg" width="190" height="31" viewBox="0 0 190 31">
  <path fill="#FFFFFF" fill-rule="evenodd" d="M17.77,3.62 L17.77,24.41 L13.42,24.41 L13.42,17.18 C13.42,15.0999896 13.6099981,13.0500101 13.99,11.03 L11.11,19.13 L7.63,19.13 L4.75,11.03 C5.1300019,12.8900093 5.32,14.9399888 5.32,17.18 L5.32,24.41 L1,24.41 L1,3.62 L5.62,3.62 L9.37,14.24 L13.12,3.62 L17.77,3.62 Z M24.13,19.28 L24.13,20.12 C24.13,20.8000034 24.4799965,21.14 25.18,21.14 C25.780003,21.14 26.279998,21.0300011 26.68,20.81 L26.68,17.18 L25.3,17.54 C24.7999975,17.6800007 24.4800007,17.8599989 24.34,18.08 C24.1999993,18.3000011 24.13,18.6999971 24.13,19.28 Z M20.62,7.13 C21.7200055,6.7499981 23.2899898,6.56 25.33,6.56 C27.3700102,6.56 28.8299956,7.00499555 29.71,7.895 C30.5900044,8.78500445 31.03,10.129991 31.03,11.93 L31.03,24.41 L26.8,24.41 L26.8,23.12 C26.2199971,24.0200045 25.2100072,24.47 23.77,24.47 C22.3299928,24.47 21.2900032,24.1250034 20.65,23.435 C20.0099968,22.7449965 19.69,21.6400076 19.69,20.12 L19.69,19.1 C19.69,17.7599933 19.984997,16.7300036 20.575,16.01 C21.1650029,15.2899964 22.1199934,14.7500018 23.44,14.39 L26.71,13.55 L26.71,11.9 C26.6899999,11.3799974 26.5400014,11.015001 26.26,10.805 C25.9799986,10.5949989 25.4700037,10.49 24.73,10.49 C23.0699917,10.49 21.7000054,10.6999979 20.62,11.12 L20.62,7.13 Z M32.89,11.39 C32.89,9.789992 33.3749951,8.58500405 34.345,7.775 C35.3150049,6.96499595 36.8799892,6.56 39.04,6.56 C40.5200074,6.56 41.7399952,6.7099985 42.7,7.01 L42.7,11 C41.7999955,10.6999985 40.8150053,10.55 39.745,10.55 C38.6749946,10.55 37.9950014,10.6399991 37.705,10.82 C37.4149985,11.0000009 37.27,11.289998 37.27,11.69 L37.27,11.93 C37.27,12.1700012 37.3449992,12.3749992 37.495,12.545 C37.6450008,12.7150008 37.9699975,12.9699983 38.47,13.31 L40.9,14.93 C41.6600038,15.4300025 42.2449979,15.979997 42.655,16.58 C43.065002,17.180003 43.27,17.9299955 43.27,18.83 L43.27,19.58 C43.27,22.9000166 41.0900218,24.56 36.73,24.56 C35.2099924,24.56 33.9100054,24.4300013 32.83,24.17 L32.83,20.12 C33.7700047,20.4000014 34.8099943,20.54 35.95,20.54 C37.0900057,20.54 37.8449981,20.4450009 38.215,20.255 C38.5850018,20.064999 38.77,19.7800019 38.77,19.4 L38.77,19.13 C38.77,18.8299985 38.670001,18.5900009 38.47,18.41 C38.2299988,18.1699988 37.0800103,17.3700068 35.02,16.01 C33.5999929,15.0499952 32.89,13.770008 32.89,12.17 L32.89,11.39 Z M45.22,2 L49.75,2 L49.75,7.01 C50.550004,6.7299986 51.3999955,6.59 52.3,6.59 C55.1400142,6.59 56.56,7.8599873 56.56,10.4 L56.56,24.41 L51.97,24.41 L51.97,11.51 C51.97,11.0299976 51.6850028,10.79 51.115,10.79 C50.5449971,10.79 50.0900017,10.889999 49.75,11.09 L49.75,24.41 L45.22,24.41 L45.22,2 Z M65.89,6.71 L70.42,6.71 L70.42,24.41 L66.16,24.41 L66.16,23.6 C65.1799951,24.1400027 64.0650062,24.41 62.815,24.41 C61.5649937,24.41 60.6100033,24.0700034 59.95,23.39 C59.2899967,22.7099966 58.96,21.7300064 58.96,20.45 L58.96,6.71 L63.55,6.71 L63.55,19.55 C63.55,20.0700026 63.8399971,20.33 64.42,20.33 C65.0000029,20.33 65.489998,20.2100012 65.89,19.97 L65.89,6.71 Z M80.02,11.51 C80.02,11.0299976 79.7350029,10.79 79.165,10.79 C78.5949972,10.79 78.0900022,10.9199987 77.65,11.18 L77.65,20.24 L78.85,20.24 C79.6300039,20.24 80.02,19.9200032 80.02,19.28 L80.02,11.51 Z M77.38,7.49 C78.4400053,6.9099971 79.5649941,6.62 80.755,6.62 C81.945006,6.62 82.8849966,6.93499685 83.575,7.565 C84.2650035,8.19500315 84.61,9.1399937 84.61,10.4 L84.61,20 C84.61,21.5000075 84.1950042,22.6099964 83.365,23.33 C82.5349959,24.0500036 81.420007,24.41 80.02,24.41 L77.65,24.41 L77.65,28.88 L73.12,28.88 L73.12,6.71 L77.38,6.71 L77.38,7.49 Z M101.56,4.25 L101.56,6.14 L97.66,6.14 L97.66,24.41 L95.5,24.41 L95.5,6.14 L91.6,6.14 L91.6,4.25 L101.56,4.25 Z M103.6,20.06 L103.6,11.72 C103.6,10.2999929 104.004996,9.16500425 104.815,8.315 C105.625004,7.46499575 106.849992,7.04 108.49,7.04 C110.130008,7.04 111.344996,7.46499575 112.135,8.315 C112.925004,9.16500425 113.32,10.2999929 113.32,11.72 L113.32,16.94 L105.7,16.94 L105.7,19.97 C105.7,20.8700045 105.979997,21.5399978 106.54,21.98 C107.100003,22.4200022 107.969994,22.64 109.15,22.64 C110.330006,22.64 111.549994,22.4600018 112.81,22.1 L112.81,24.08 C111.809995,24.4000016 110.620007,24.56 109.24,24.56 C105.479981,24.56 103.6,23.060015 103.6,20.06 Z M105.7,15.17 L111.28,15.17 L111.28,11.72 C111.28,9.8399906 110.350009,8.9 108.49,8.9 C106.629991,8.9 105.7,9.8399906 105.7,11.72 L105.7,15.17 Z M125.65,8.51 C127.030007,7.6899959 128.399993,7.28 129.76,7.28 C131.120007,7.28 132.159996,7.62499655 132.88,8.315 C133.600004,9.00500345 133.96,9.9799937 133.96,11.24 L133.96,24.41 L131.8,24.41 L131.8,11.45 C131.8,9.9899927 131.070007,9.26 129.61,9.26 C128.529995,9.26 127.450005,9.5899967 126.37,10.25 C126.47,10.5500015 126.52,10.9499975 126.52,11.45 L126.52,24.41 L124.39,24.41 L124.39,11.45 C124.39,9.9899927 123.650007,9.26 122.17,9.26 C121.229995,9.26 120.210005,9.5199974 119.11,10.04 L119.11,24.41 L116.98,24.41 L116.98,7.34 L119.02,7.34 L119.02,8.12 C120.360007,7.5599972 121.529995,7.28 122.53,7.28 C123.890007,7.28 124.929996,7.6899959 125.65,8.51 Z M145.39,11.45 C145.39,9.9899927 144.650007,9.26 143.17,9.26 C142.209995,9.26 141.180006,9.5199974 140.08,10.04 L140.08,22.46 L142.6,22.46 C144.460009,22.46 145.39,21.5700089 145.39,19.79 L145.39,11.45 Z M139.99,8.15 C141.330007,7.5699971 142.559994,7.28 143.68,7.28 C144.800006,7.28 145.724996,7.62499655 146.455,8.315 C147.185004,9.00500345 147.55,9.9799937 147.55,11.24 L147.55,19.94 C147.55,21.340007 147.145004,22.434996 146.335,23.225 C145.524996,24.015004 144.450007,24.41 143.11,24.41 L140.08,24.41 L140.08,28.88 L137.95,28.88 L137.95,7.34 L139.99,7.34 L139.99,8.15 Z M151.36,2.81 L153.49,2.81 L153.49,24.41 L151.36,24.41 L151.36,2.81 Z M158.59,19.55 L158.59,20.45 C158.59,21.250004 158.779998,21.8399981 159.16,22.22 C159.540002,22.6000019 160.259995,22.79 161.32,22.79 C162.380005,22.79 163.379995,22.4000039 164.32,21.62 L164.32,16.01 L160.9,16.97 C159.999996,17.2300013 159.390002,17.5499981 159.07,17.93 C158.749998,18.3100019 158.59,18.8499965 158.59,19.55 Z M161.29,7.19 C164.690017,7.19 166.39,8.6399855 166.39,11.54 L166.39,24.41 L164.35,24.41 L164.35,23.18 C163.329995,24.0800045 162.110007,24.53 160.69,24.53 C157.909986,24.53 156.52,23.1600137 156.52,20.42 L156.52,19.46 C156.52,17.3799896 157.729988,16.0000034 160.15,15.32 L164.35,14.15 L164.35,11.54 C164.33,10.7199959 164.100002,10.1200019 163.66,9.74 C163.219998,9.3599981 162.335007,9.17 161.005,9.17 C159.674993,9.17 158.450006,9.369998 157.33,9.77 L157.33,7.76 C158.470006,7.3799981 159.789993,7.19 161.29,7.19 Z M172.48,4.25 L172.48,7.34 L176.29,7.34 L176.29,9.23 L172.48,9.23 L172.48,20.63 C172.48,21.3300035 172.649998,21.8349984 172.99,22.145 C173.330002,22.4550015 173.849997,22.61 174.55,22.61 C175.250003,22.61 175.929997,22.5000011 176.59,22.28 L176.59,24.23 C175.789996,24.430001 175.040004,24.53 174.34,24.53 C171.659987,24.53 170.32,23.2600127 170.32,20.72 L170.32,9.23 L168.46,9.23 L168.46,7.34 L170.41,7.34 L171.01,4.25 L172.48,4.25 Z M178.81,20.06 L178.81,11.72 C178.81,10.2999929 179.214996,9.16500425 180.025,8.315 C180.835004,7.46499575 182.059992,7.04 183.7,7.04 C185.340008,7.04 186.554996,7.46499575 187.345,8.315 C188.135004,9.16500425 188.53,10.2999929 188.53,11.72 L188.53,16.94 L180.91,16.94 L180.91,19.97 C180.91,20.8700045 181.189997,21.5399978 181.75,21.98 C182.310003,22.4200022 183.179994,22.64 184.36,22.64 C185.540006,22.64 186.759994,22.4600018 188.02,22.1 L188.02,24.08 C187.019995,24.4000016 185.830007,24.56 184.45,24.56 C180.689981,24.56 178.81,23.060015 178.81,20.06 Z M180.91,15.17 L186.49,15.17 L186.49,11.72 C186.49,9.8399906 185.560009,8.9 183.7,8.9 C181.839991,8.9 180.91,9.8399906 180.91,11.72 L180.91,15.17 Z"/>
</svg>
