<?xml version="1.0" encoding="UTF-8"?>
<svg width="52px" height="44px" viewBox="0 0 52 44" version="1.1" xmlns="http://www.w3.org/2000/svg" xmlns:xlink="http://www.w3.org/1999/xlink">
    <!-- Generator: Sketch 47 (45396) - http://www.bohemiancoding.com/sketch -->
    <title>icn-bootstrapmagic 6</title>
    <desc>Created with Sketch.</desc>
    <defs></defs>
    <g id="Interface" stroke="none" stroke-width="1" fill="none" fill-rule="evenodd" stroke-opacity="0">
        <g id="icn-bootstrapmagic-6" stroke="#15162C" fill="#11D3C4" fill-rule="nonzero">
            <g id="Group-21" transform="translate(0.000000, 2.000000)">
                <path d="M6.29103559,21.5406629 C7.49417937,23.4339691 8.91551206,25.3284039 10.5402249,27.0896868 C15.082731,32.0140268 20.2653089,34.92 26,34.92 C31.7346911,34.92 36.917269,32.0140268 41.4597751,27.0896868 C43.0844879,25.3284039 44.5058206,23.4339691 45.7089644,21.5406629 C46.0591713,20.989566 46.3688064,20.4727588 46.6370519,20 C46.3688064,19.5272412 46.0591713,19.010434 45.7089644,18.4593371 C44.5058206,16.5660309 43.0844879,14.6715961 41.4597751,12.9103132 C36.917269,7.98597319 31.7346911,5.08 26,5.08 C20.2653089,5.08 15.082731,7.98597319 10.5402249,12.9103132 C8.91551206,14.6715961 7.49417937,16.5660309 6.29103559,18.4593371 C5.94082874,19.010434 5.63119358,19.5272412 5.36294806,20 C5.63119358,20.4727588 5.94082874,20.989566 6.29103559,21.5406629 Z M1.13364168,19.0817916 C1.42669575,18.4861274 1.97737885,17.4911734 2.77998713,16.2281629 C4.10880358,14.1370941 5.67681749,12.0471539 7.48250239,10.0896868 C12.7411326,4.38902681 18.9278729,0.92 26,0.92 C33.0721271,0.92 39.2588674,4.38902681 44.5174976,10.0896868 C46.3231825,12.0471539 47.8911964,14.1370941 49.2200129,16.2281629 C50.0226212,17.4911734 50.5733042,18.4861274 50.8663583,19.0817916 C51.1512139,19.6607915 51.1512139,20.3392085 50.8663583,20.9182084 C50.5733042,21.5138726 50.0226212,22.5088266 49.2200129,23.7718371 C47.8911964,25.8629059 46.3231825,27.9528461 44.5174976,29.9103132 C39.2588674,35.6109732 33.0721271,39.08 26,39.08 C18.9278729,39.08 12.7411326,35.6109732 7.48250239,29.9103132 C5.67681749,27.9528461 4.10880358,25.8629059 2.77998713,23.7718371 C1.97737885,22.5088266 1.42669575,21.5138726 1.13364168,20.9182084 C0.848786107,20.3392085 0.848786107,19.6607915 1.13364168,19.0817916 Z" id="Shape"></path>
                <path d="M26,28.455 C21.379319,28.455 17.6472727,24.6621051 17.6472727,20 C17.6472727,15.3378949 21.379319,11.545 26,11.545 C30.620681,11.545 34.3527273,15.3378949 34.3527273,20 C34.3527273,24.6621051 30.620681,28.455 26,28.455 Z M26,24.295 C28.3079822,24.295 30.1927273,22.3795254 30.1927273,20 C30.1927273,17.6204746 28.3079822,15.705 26,15.705 C23.6920178,15.705 21.8072727,17.6204746 21.8072727,20 C21.8072727,22.3795254 23.6920178,24.295 26,24.295 Z" id="Oval"></path>
            </g>
        </g>
    </g>
</svg>