<svg xmlns="http://www.w3.org/2000/svg" width="24" height="24" viewBox="0 0 24 24">
  <path fill="#787878" d="M11,22 C4.92486775,22 0,17.0751322 0,11 C0,4.92486775 4.92486775,0 11,0 C17.0751322,0 22,4.92486775 22,11 C22,17.0751322 17.0751322,22 11,22 Z M13.4916069,11.9025416 L13.7435354,9.32275658 L11.5885485,9.32275658 L11.5885485,7.80305566 C11.5885485,7.23304259 11.9460017,7.09920472 12.2002119,7.09920472 L13.75,7.09920472 L13.75,4.59275007 L11.6140265,4.58333333 C9.24342677,4.58333333 8.7047751,6.45445883 8.7047751,7.64938254 L8.7047751,9.32035231 L7.33333333,9.32035231 L7.33333333,11.9025416 L8.7047751,11.9025416 L8.7047751,19.25 L11.5883583,19.25 L11.5883583,11.9025416 L13.4916069,11.9025416 Z" transform="translate(1 1)"/>
</svg>
