<svg xmlns="http://www.w3.org/2000/svg" width="16" height="16" viewBox="0 0 16 16">
  <path fill="#D8D8D8" d="M11.1951403,3.06320565 C10.6586037,2.12086208 9.93082596,1.37480736 9.01161566,0.824873195 C8.09226854,0.274910983 7.08861556,0 5.99994527,0 C4.9114118,0 3.90743046,0.274995131 2.98827489,0.824873195 C2.0689825,1.37477931 1.34123216,2.12086208 0.804695517,3.06320565 C0.26824096,4.00552118 0,5.03453702 0,6.15022514 C0,7.49041969 0.381442312,8.69555696 1.14451848,9.76594549 C1.90751255,10.8364182 2.89318794,11.5771435 4.10146256,11.9882057 C4.24210915,12.0149647 4.34622594,11.9961437 4.41392237,11.9322194 C4.48164617,11.8682109 4.51546702,11.7880461 4.51546702,11.6920614 C4.51546702,11.6760453 4.51412623,11.5319561 4.51152673,11.2596257 C4.50884514,10.9872952 4.50758643,10.7497179 4.50758643,10.5470057 L4.32789263,10.5788697 C4.21332312,10.6003835 4.06879096,10.6094995 3.89429615,10.606919 C3.71988343,10.6044226 3.53882147,10.5856857 3.35135653,10.5508485 C3.1638095,10.5163198 2.98936942,10.4362391 2.82789947,10.3107747 C2.66651161,10.1853103 2.5519421,10.0210817 2.4842183,9.81834154 L2.40609651,9.63405778 C2.35402444,9.51137024 2.27204444,9.37507879 2.16004706,9.22568833 C2.04804969,9.07615762 1.93479361,8.97478753 1.8202241,8.92140975 L1.76552517,8.88127123 C1.72907745,8.85459637 1.6952566,8.82242385 1.66398052,8.78509026 C1.6327318,8.74775667 1.60933631,8.71039503 1.59371195,8.67297729 C1.57806023,8.6355315 1.59103036,8.60481754 1.63275916,8.58072321 C1.67448797,8.55662888 1.74990081,8.54493233 1.85932605,8.54493233 L2.01551491,8.56885837 C2.11968642,8.59025997 2.24853949,8.65418427 2.40223831,8.76102398 C2.55585503,8.86777953 2.68213597,9.00656736 2.78110848,9.17733137 C2.90095908,9.39628404 3.04535442,9.56312116 3.21470496,9.67792685 C3.38391868,9.79273255 3.55452792,9.85003723 3.7263685,9.85003723 C3.89820908,9.85003723 4.04662681,9.83668577 4.1716764,9.81012311 C4.29658918,9.78342019 4.41378555,9.74328167 4.52321079,9.68993195 C4.57008387,9.33207925 4.6977056,9.05716826 4.90596653,8.86500265 C4.60913108,8.83302647 4.34225828,8.78486586 4.10521131,8.72082936 C3.86830116,8.65670871 3.62348306,8.55264588 3.37092118,8.40836039 C3.11822249,8.26427125 2.9085934,8.0853449 2.74197918,7.87188988 C2.57533759,7.65832267 2.43857657,7.37794208 2.33188765,7.03100055 C2.225144,6.68391877 2.17175849,6.28354337 2.17175849,5.82976213 C2.17175849,5.18364699 2.37752938,4.63382503 2.78898907,4.17998769 C2.59624304,3.69423028 2.61443953,3.14968158 2.84363328,2.54639769 C2.99467787,2.49829318 3.21867261,2.5343926 3.51550807,2.65447156 C3.81239824,2.77460662 4.02977111,2.87751943 4.16784556,2.96284533 C4.30592002,3.04814319 4.41654923,3.12042618 4.49989739,3.17904917 C4.98436196,3.04028939 5.48431407,2.97089548 5.99989055,2.97089548 C6.51546702,2.97089548 7.01552859,3.04028939 7.50002052,3.17904917 L7.79688334,2.98693966 C7.99989055,2.85875446 8.2396191,2.74128408 8.51549438,2.63450047 C8.79153384,2.52777297 9.00261318,2.49837732 9.1485135,2.54648184 C9.38279679,3.14979378 9.40367487,3.69431443 9.21087412,4.18007184 C9.62230644,4.63390917 9.82815942,5.18387139 9.82815942,5.82984628 C9.82815942,6.28362751 9.77458237,6.68526514 9.6680029,7.0350116 C9.56128662,7.38481415 9.42334898,7.66491425 9.25413526,7.87590093 C9.08472999,8.08685956 8.87376011,8.26438344 8.62119823,8.40844454 C8.36858163,8.55261783 8.12368144,8.65668066 7.88677129,8.72080131 C7.64975168,8.78492196 7.38287888,8.83311062 7.08604343,8.8651429 C7.35677443,9.10530083 7.4921673,9.48438683 7.4921673,10.0022326 L7.4921673,11.691837 C7.4921673,11.7878217 7.52472945,11.8679585 7.58990847,11.931995 C7.6550054,11.9959193 7.75780876,12.0147403 7.89845535,11.9879533 C9.10689415,11.5769472 10.0925695,10.8361938 10.8555362,9.7657211 C11.6184209,8.69533256 12,7.4901953 12,6.15000075 C11.9997264,5.03445288 11.7313486,4.00552118 11.1951403,3.06320565 Z" transform="translate(2 2)"/>
</svg>
