<?xml version="1.0" encoding="UTF-8"?>
<svg width="52px" height="44px" viewBox="0 0 52 44" version="1.1" xmlns="http://www.w3.org/2000/svg" xmlns:xlink="http://www.w3.org/1999/xlink">
    <!-- Generator: Sketch 47 (45396) - http://www.bohemiancoding.com/sketch -->
    <title>icn-01-bootstrapmagic</title>
    <desc>Created with Sketch.</desc>
    <defs></defs>
    <g id="Interface" stroke="none" stroke-width="1" fill="none" fill-rule="evenodd">
        <g id="icn-01-bootstrapmagic" fill-rule="nonzero" fill="#11D3C4">
            <g id="Group-23" transform="translate(0.000000, 1.000000)">
                <path d="M19.1451289,30.1158857 C18.3371023,29.2993536 17.0201372,29.2924585 16.203605,30.1004851 C15.3870729,30.9085117 15.3801778,32.2254768 16.1882044,33.042009 L24.5215377,41.4630616 C25.3355536,42.2856461 26.6644464,42.2856461 27.4784623,41.4630616 L35.8117956,33.042009 C36.6198222,32.2254768 36.6129271,30.9085117 35.796395,30.1004851 C34.9798628,29.2924585 33.6628977,29.2993536 32.8548711,30.1158857 L26,37.0429133 L19.1451289,30.1158857 Z" id="Shape" stroke-opacity="0" stroke="#15162C"></path>
                <path d="M23.92,21.0526316 L23.92,40 C23.92,41.1487523 24.8512477,42.08 26,42.08 C27.1487523,42.08 28.08,41.1487523 28.08,40 L28.08,21.0526316 C28.08,19.9038793 27.1487523,18.9726316 26,18.9726316 C24.8512477,18.9726316 23.92,19.9038793 23.92,21.0526316 Z" id="Shape"></path>
                <path d="M21.8788068,0.125293778 C14.1575523,-0.773382293 6.69083813,3.22991597 3.10353629,10.184167 C-0.479316138,17.1297924 0.546331662,25.586328 5.68519344,31.4545318 C6.44200099,32.3187506 7.75610249,32.4058246 8.62032129,31.6490171 C9.48454009,30.8922095 9.57161411,29.578108 8.81480656,28.7138892 C4.80266226,24.1323143 4.00060925,17.5193329 6.80062909,12.0912865 C9.59619951,6.67186563 15.401279,3.55945711 21.3978713,4.25739991 C27.3971709,4.95565782 32.3545991,9.32419566 33.858978,15.2487554 C34.0931747,16.1710714 34.9234145,16.8168421 35.875,16.8168421 L38.5,16.8168421 C42.1329793,16.8139711 45.3524226,19.1939749 46.4535898,22.7061189 C47.5569413,26.2252294 46.2759553,30.060013 43.2951638,32.1781696 C42.358757,32.8435823 42.1390727,34.1421135 42.8044854,35.0785204 C43.469898,36.0149273 44.7684293,36.2346115 45.7048362,35.5691988 C50.1579443,32.404811 52.0645667,26.6971105 50.4230593,21.4615658 C48.7793676,16.2190544 43.9549114,12.6525296 38.4983559,12.6568428 L37.4206613,12.6568425 C35.0631797,5.86927304 29.0556654,0.960607661 21.8788068,0.125293778 Z" id="Shape" stroke-opacity="0" stroke="#15162C"></path>
            </g>
        </g>
    </g>
</svg>