<?xml version="1.0" encoding="UTF-8"?>
<svg width="52px" height="44px" viewBox="0 0 52 44" version="1.1" xmlns="http://www.w3.org/2000/svg" xmlns:xlink="http://www.w3.org/1999/xlink">
    <!-- Generator: Sketch 47 (45396) - http://www.bohemiancoding.com/sketch -->
    <title>icn-bootstrapmagic 5</title>
    <desc>Created with Sketch.</desc>
    <defs></defs>
    <g id="Interface" stroke="none" stroke-width="1" fill="none" fill-rule="evenodd" stroke-opacity="0">
        <g id="icn-bootstrapmagic-5" stroke="#15162C" fill="#11D3C4" fill-rule="nonzero">
            <g id="loader" transform="translate(5.000000, 1.000000)">
                <path d="M19,1.88157895 L19,9.11842105 C19,10.1575884 19.8954305,11 21,11 C22.1045695,11 23,10.1575884 23,9.11842105 L23,1.88157895 C23,0.842411589 22.1045695,0 21,0 C19.8954305,0 19,0.842411589 19,1.88157895 Z" id="Shape"></path>
                <path d="M19,32.8815789 L19,40.1184211 C19,41.1575884 19.8954305,42 21,42 C22.1045695,42 23,41.1575884 23,40.1184211 L23,32.8815789 C23,31.8424116 22.1045695,31 21,31 C19.8954305,31 19,31.8424116 19,32.8815789 Z" id="Shape"></path>
                <path d="M5.53966152,8.14537785 L10.8546222,13.4603385 C11.5741708,14.1798872 12.7407898,14.1798872 13.4603385,13.4603385 C14.1798872,12.7407898 14.1798872,11.5741708 13.4603385,10.8546222 L8.14537785,5.53966152 C7.42582915,4.82011283 6.25921022,4.82011283 5.53966152,5.53966152 C4.82011283,6.25921022 4.82011283,7.42582915 5.53966152,8.14537785 Z" id="Shape"></path>
                <path d="M27.5396615,30.1453778 L32.8546222,35.4603385 C33.5741708,36.1798872 34.7407898,36.1798872 35.4603385,35.4603385 C36.1798872,34.7407898 36.1798872,33.5741708 35.4603385,32.8546222 L30.1453778,27.5396615 C29.4258292,26.8201128 28.2592102,26.8201128 27.5396615,27.5396615 C26.8201128,28.2592102 26.8201128,29.4258292 27.5396615,30.1453778 Z" id="Shape"></path>
                <path d="M1.88157895,23 L9.11842105,23 C10.1575884,23 11,22.1045695 11,21 C11,19.8954305 10.1575884,19 9.11842105,19 L1.88157895,19 C0.842411589,19 0,19.8954305 0,21 C0,22.1045695 0.842411589,23 1.88157895,23 Z" id="Shape"></path>
                <path d="M32.8815789,23 L40.1184211,23 C41.1575884,23 42,22.1045695 42,21 C42,19.8954305 41.1575884,19 40.1184211,19 L32.8815789,19 C31.8424116,19 31,19.8954305 31,21 C31,22.1045695 31.8424116,23 32.8815789,23 Z" id="Shape"></path>
                <path d="M8.14537785,35.4603385 L13.4603385,30.1453778 C14.1798872,29.4258292 14.1798872,28.2592102 13.4603385,27.5396615 C12.7407898,26.8201128 11.5741708,26.8201128 10.8546222,27.5396615 L5.53966152,32.8546222 C4.82011283,33.5741708 4.82011283,34.7407898 5.53966152,35.4603385 C6.25921022,36.1798872 7.42582915,36.1798872 8.14537785,35.4603385 Z" id="Shape"></path>
                <path d="M30.1453778,13.4603385 L35.4603385,8.14537785 C36.1798872,7.42582915 36.1798872,6.25921022 35.4603385,5.53966152 C34.7407898,4.82011283 33.5741708,4.82011283 32.8546222,5.53966152 L27.5396615,10.8546222 C26.8201128,11.5741708 26.8201128,12.7407898 27.5396615,13.4603385 C28.2592102,14.1798872 29.4258292,14.1798872 30.1453778,13.4603385 Z" id="Shape"></path>
            </g>
        </g>
    </g>
</svg>