<?xml version="1.0" encoding="UTF-8"?>
<svg width="52px" height="44px" viewBox="0 0 52 44" version="1.1" xmlns="http://www.w3.org/2000/svg" xmlns:xlink="http://www.w3.org/1999/xlink">
    <!-- Generator: Sketch 47 (45396) - http://www.bohemiancoding.com/sketch -->
    <title>icn-bootstrapmagic 4</title>
    <desc>Created with Sketch.</desc>
    <defs></defs>
    <g id="Interface" stroke="none" stroke-width="1" fill="none" fill-rule="evenodd" stroke-opacity="0">
        <g id="icn-bootstrapmagic-4" fill-rule="nonzero" stroke="#15162C" fill="#11D3C4">
            <g id="download" transform="translate(6.000000, 2.000000)">
                <g id="Group-12">
                    <path d="M0.813023256,29.9361702 L0.813023256,35.5659574 C0.813023256,38.6565385 3.25366468,41.1778723 6.28423773,41.1778723 L31.7157623,41.1778723 C34.7463353,41.1778723 37.1869767,38.6565385 37.1869767,35.5659574 L37.1869767,29.9361702 C37.1869767,28.9096256 36.3640136,28.0774468 35.3488372,28.0774468 C34.3336608,28.0774468 33.5106977,28.9096256 33.5106977,29.9361702 L33.5106977,35.5659574 C33.5106977,36.6210372 32.698173,37.4604255 31.7157623,37.4604255 L6.28423773,37.4604255 C5.30182701,37.4604255 4.48930233,36.6210372 4.48930233,35.5659574 L4.48930233,29.9361702 C4.48930233,28.9096256 3.66633922,28.0774468 2.65116279,28.0774468 C1.63598636,28.0774468 0.813023256,28.9096256 0.813023256,29.9361702 Z" id="Shape"></path>
                    <g id="Group-10" transform="translate(18.779070, 15.776596) rotate(-180.000000) translate(-18.779070, -15.776596) translate(9.279070, 0.276596)">
                        <path d="M3.32650689,20.1466238 C2.61638677,19.4130257 1.45260775,19.4004395 0.72713369,20.1185117 C0.00165962766,20.8365839 -0.0107872068,22.0133951 0.699332907,22.7469932 L7.96548278,30.2533762 C8.68636719,30.9980945 9.87177234,30.9980945 10.5926568,30.2533762 L17.8588066,22.7469932 C18.5689267,22.0133951 18.5564799,20.8365839 17.8310058,20.1185117 C17.1055318,19.4004395 15.9417528,19.4130257 15.2316326,20.1466238 L9.27906977,26.29599 L3.32650689,20.1466238 Z" id="Shape"></path>
                        <path d="M7.44093023,2.68085106 L7.44093023,28.9531915 C7.44093023,29.9797361 8.26389333,30.8119149 9.27906977,30.8119149 C10.2942462,30.8119149 11.1172093,29.9797361 11.1172093,28.9531915 L11.1172093,2.68085106 C11.1172093,1.65430647 10.2942462,0.82212766 9.27906977,0.82212766 C8.26389333,0.82212766 7.44093023,1.65430647 7.44093023,2.68085106 Z" id="Shape"></path>
                    </g>
                </g>
            </g>
        </g>
    </g>
</svg>