<svg xmlns="http://www.w3.org/2000/svg" width="24" height="24" viewBox="0 0 24 24">
  <path fill="#787878" d="M11,22 C4.92486775,22 0,17.0751322 0,11 C0,4.92486775 4.92486775,0 11,0 C17.0751322,0 22,4.92486775 22,11 C22,17.0751322 17.0751322,22 11,22 Z M17.4166667,7.61037842 C16.9446306,7.8127475 16.436858,7.94962189 15.9043448,8.01075026 C16.4480502,7.69580627 16.8653034,7.19747717 17.0622469,6.60270953 C16.5534926,6.89449308 15.989759,7.1061643 15.3902889,7.22025793 C14.9100059,6.72572563 14.2257107,6.41666667 13.4679789,6.41666667 C12.0141707,6.41666667 10.8350623,7.5566538 10.8350623,8.96222662 C10.8350623,9.16174809 10.8584285,9.35595406 10.90359,9.5423766 C8.71541612,9.43625624 6.77523792,8.42289215 5.47654967,6.88234334 C5.24995665,7.25822586 5.11997001,7.69580627 5.11997001,8.1622423 C5.11997001,9.04518654 5.58513367,9.82466817 6.29122423,10.2810427 C5.85983353,10.2679438 5.4535762,10.1534705 5.09876373,9.96230192 C5.09856738,9.97312278 5.09856738,9.98394364 5.09856738,9.99457467 C5.09856738,11.2279629 6.0065103,12.256704 7.21075206,12.4903966 C6.99004968,12.5488672 6.75697696,12.5798111 6.51722819,12.5798111 C6.34718525,12.5798111 6.18244387,12.5640544 6.02182594,12.5344394 C6.35680661,13.5455254 7.32895743,14.2815338 8.48136163,14.3022263 C7.58009476,14.9850795 6.44496976,15.3919059 5.21107847,15.3919059 C4.99901568,15.3919059 4.78891643,15.379946 4.58333333,15.3562161 C5.7479115,16.0787458 7.13221029,16.5 8.61900609,16.5 C13.4618919,16.5 16.1103206,12.6211961 16.1103206,9.2570476 C16.1103206,9.14675076 16.107768,9.0368336 16.1026628,8.92786564 C16.6175041,8.56906869 17.0638177,8.12085726 17.4166667,7.61037842 Z" transform="translate(1 1)"/>
</svg>
