<svg xmlns="http://www.w3.org/2000/svg" width="24" height="24" viewBox="0 0 24 24">
  <path fill="#787878" d="M20.5244239,5.61587703 C19.5407734,3.88824714 18.2065143,2.52048015 16.5212954,1.51226752 C14.8358257,0.504003468 12.9957952,0 10.9998997,0 C9.00425497,0 7.16362252,0.504157739 5.47850397,1.51226752 C3.79313459,2.52042873 2.45892563,3.88824714 1.47527511,5.61587703 C0.491775093,7.34345549 0,9.22998454 0,11.2754128 C0,13.7324361 0.699310905,15.9418544 2.09828387,17.9042334 C3.49710635,19.8667666 5.3041779,21.2247631 7.51934803,21.9783771 C7.77720011,22.0274353 7.96808089,21.99293 8.09219101,21.8757355 C8.21635131,21.7583866 8.2783562,21.6114178 8.2783562,21.4354459 C8.2783562,21.406083 8.27589808,21.1419196 8.27113233,20.6426471 C8.26621609,20.1433746 8.26390846,19.7078161 8.26390846,19.3361771 L7.93446982,19.3945944 C7.72442572,19.4340364 7.45945009,19.4507491 7.13954294,19.4460181 C6.81978629,19.4414414 6.48783936,19.4070904 6.14415363,19.3432222 C5.80031741,19.2799196 5.4805106,19.133105 5.18448236,18.9030869 C4.88860462,18.6730688 4.67856052,18.3719832 4.55440022,18.0002928 L4.41117693,17.6624393 C4.31571146,17.4375121 4.1654148,17.1876444 3.96008629,16.9137619 C3.75475777,16.6396223 3.54712162,16.4537771 3.33707752,16.3559179 L3.23679614,16.2823306 C3.16997533,16.2334267 3.10797043,16.1744437 3.05063095,16.1059988 C2.99334163,16.0375539 2.9504499,15.9690575 2.92180524,15.9004584 C2.89311041,15.8318078 2.91688899,15.7754988 2.9933918,15.7313259 C3.06989461,15.6871529 3.20815148,15.6657093 3.40876442,15.6657093 L3.69511066,15.7095737 C3.88609177,15.7488099 4.1223224,15.8660045 4.40410356,16.0618773 C4.68573422,16.2575958 4.91724927,16.5120402 5.09869888,16.8251075 C5.31842498,17.2265207 5.58314977,17.5323888 5.89362575,17.7428659 C6.20385091,17.953343 6.51663451,18.0584016 6.83167558,18.0584016 C7.14671665,18.0584016 7.41881581,18.0339239 7.64807341,17.9852257 C7.87708017,17.9362704 8.09194018,17.8626831 8.29255312,17.7648752 C8.37848709,17.1088119 8.61246027,16.6048085 8.99427198,16.2525049 C8.45007365,16.1938819 7.96080685,16.1055874 7.52622074,15.9881872 C7.09188546,15.8706326 6.64305227,15.6798508 6.18002216,15.4153274 C5.71674123,15.151164 5.33242123,14.8231323 5.02696182,14.4317981 C4.72145225,14.0402582 4.47072371,13.5262271 4.27512735,12.8901677 C4.07943066,12.2538511 3.98155724,11.5198295 3.98155724,10.6878972 C3.98155724,9.50335282 4.35880387,8.49534588 5.11314663,7.66331077 C4.75977891,6.77275551 4.79313915,5.77441623 5.21332768,4.66839576 C5.49024276,4.58020415 5.90089979,4.64638643 6.44509812,4.86653119 C6.98939678,5.08677881 7.3879137,5.27545228 7.6410502,5.43188311 C7.8941867,5.58826251 8.09700693,5.72078133 8.24981188,5.82825682 C9.13799693,5.57386388 10.0545758,5.44664171 10.9997993,5.44664171 C11.9450229,5.44664171 12.8618024,5.57386388 13.7500376,5.82825682 L14.2942861,5.47605605 C14.666466,5.24104984 15.1059684,5.02568748 15.6117397,4.82991753 C16.117812,4.63425044 16.5047908,4.58035843 16.7722747,4.66855003 C17.2017941,5.77462192 17.2400706,6.77290979 16.8866025,7.66346504 C17.6408951,8.49550015 18.0182923,9.50376421 18.0182923,10.6880515 C18.0182923,11.5199838 17.9200677,12.2563194 17.724672,12.8975213 C17.5290255,13.538826 17.2761398,14.0523428 16.9659146,14.4391517 C16.6553383,14.8259092 16.2685602,15.1513696 15.8055301,15.4154817 C15.3423997,15.6797994 14.893416,15.8705812 14.4590807,15.9881357 C14.0245447,16.1056903 13.5352779,16.1940361 12.9910796,16.252762 C13.4874198,16.6930515 13.73564,17.3880425 13.73564,18.3374265 L13.73564,21.4350346 C13.73564,21.6110064 13.7953373,21.7579238 13.9148322,21.8753241 C14.0341766,21.9925187 14.2226494,22.0270239 14.4805015,21.9779143 C16.6959726,21.2244032 18.5030442,19.8663553 19.9018165,17.903822 C21.3004383,15.941443 22,13.7320247 22,11.2750014 C21.9994983,9.22983027 21.5074724,7.34345549 20.5244239,5.61587703 Z" transform="translate(1 1)"/>
</svg>
