<?xml version="1.0" encoding="UTF-8"?>
<svg width="52px" height="44px" viewBox="0 0 52 44" version="1.1" xmlns="http://www.w3.org/2000/svg" xmlns:xlink="http://www.w3.org/1999/xlink">
    <!-- Generator: Sketch 47 (45396) - http://www.bohemiancoding.com/sketch -->
    <title>icn-bootstrapmagic 3</title>
    <desc>Created with Sketch.</desc>
    <defs></defs>
    <g id="Interface" stroke="none" stroke-width="1" fill="none" fill-rule="evenodd" stroke-opacity="0">
        <g id="icn-bootstrapmagic-3" stroke="#15162C" fill="#11D3C4" fill-rule="nonzero">
            <g id="droplet" transform="translate(9.000000, 2.000000)">
                <path d="M16.9917851,4.70315072 L7.67456912,14.203434 C3.90466649,18.0381037 2.77647858,23.8037045 4.81430855,28.8135859 C6.85363581,33.8271483 11.6629708,37.0985745 17.0000297,37.0985745 C22.3370885,37.0985745 27.1464235,33.8271483 29.1857508,28.8135859 C31.2235808,23.8037045 30.0953929,18.0381037 26.3250472,14.2029833 L16.9917851,4.70315072 Z M18.3347151,0.567592076 L29.0128419,11.4362912 C33.8803975,16.3874716 35.3384885,23.8390411 32.7051397,30.3129692 C30.0732883,36.7832163 23.87418,41 17.0000297,41 C10.1258793,41 3.92677105,36.7832163 1.29491962,30.3129692 C-1.33842911,23.8390411 0.119661877,16.3874716 4.9855801,11.4379588 L15.6452831,0.568808867 C16.3886146,-0.189127963 17.5907291,-0.18967184 18.3347151,0.567592076 Z" id="Shape"></path>
            </g>
        </g>
    </g>
</svg>