<svg xmlns="http://www.w3.org/2000/svg" width="98" height="98" viewBox="0 0 98 98">
  <defs>
    <linearGradient id="a" x1="14.306%" x2="128.179%" y1="128.112%" y2="24.227%">
      <stop offset="0%" stop-color="#18BFF6"/>
      <stop offset="100%" stop-color="#06F07D"/>
    </linearGradient>
    <linearGradient id="b" x1="-7.054%" x2="129.243%" y1="100%" y2="6.681%">
      <stop offset="0%" stop-color="#06F07D"/>
      <stop offset="100%" stop-color="#18BFF6"/>
    </linearGradient>
  </defs>
  <g fill="none" fill-rule="evenodd" transform="translate(1 3)">
    <ellipse cx="47.75" cy="46" fill="#03041A" stroke="#FFFFFF" stroke-width="4.5" rx="45.75" ry="46"/>
    <g transform="translate(0 25.64)">
      <path fill="url(#a)" d="M46.4739101,60 C72.0022021,60 92.4739101,41.6294139 92.4739101,13.7531841 C89.9138027,9.18231234 91.2668637,3.52434572 89,0.860655738 C75.5,13.0868255 53.5,6.86065574 38.5,3.86065574 C23.5,0.860655738 8.14573572,2.59201986 8,2.86065574 C7.94243184,3.26026165 6.10044822,2.51879751 6,2.86065574 C4.85203717,6.76754973 0.93869836,10.8655869 1.00087952,16 C1.13240469,26.8602756 6.67383072,35.1150901 12.9739101,43.5212495 C21.5609948,54.978947 34.3802166,60 46.4739101,60 Z" opacity=".591"/>
      <path fill="url(#b)" d="M46.4730305,66 C72.0013226,66 92.4730305,48.7205294 92.4730305,22.5 C89.9129231,18.2006138 91.2398942,3.50548091 88.9730305,1 C75.4730305,12.5 67.3260814,19.43684 46.4730305,22.5 C25.6199797,25.56316 0.618766258,13.7473197 0.473030536,14 C-1.63406104,27.7575284 3.43384073,38.5278952 12.9730305,50.5 C21.5601153,61.2771709 34.3793371,66 46.4730305,66 Z"/>
      <path fill="url(#a)" d="M46.4739101,66 C72.0022021,66 92.4739101,47.6294139 92.4739101,19.7531841 C89.9138027,15.1823123 91.2677432,3.66368998 89.0008795,1 C75.5008795,13.2261697 65.3923278,16.238038 46.4739101,16.3606557 C27.5554924,16.4832734 5.64661525,2.73136413 5.50087952,3 C4.78539922,7.96646373 0.933257429,16.4163192 1.00087952,22 C1.13240469,32.8602756 6.67383072,41.1150901 12.9739101,49.5212495 C21.5609948,60.978947 34.3802166,66 46.4739101,66 Z" opacity=".686"/>
    </g>
    <ellipse cx="47.75" cy="46" stroke="#FFFFFF" stroke-width="4.5" rx="45.75" ry="46"/>
  </g>
</svg>
