<svg xmlns="http://www.w3.org/2000/svg" width="77" height="78" viewBox="0 0 77 78">
  <defs>
    <linearGradient id="a" x1="-7.054%" x2="128.081%" y1="100%" y2="7.477%">
      <stop offset="0%" stop-color="#06F07D"/>
      <stop offset="100%" stop-color="#18BFF6"/>
    </linearGradient>
  </defs>
  <g fill="none" fill-rule="evenodd" transform="translate(1 2)">
    <path fill="url(#a)" d="M37,55.9858981 C57.3128345,55.9858981 73.6021505,42.236642 73.6021505,21.3729949 C71.5650758,17.9519779 72.6209453,6.25907647 70.8172043,4.26546801 C63.2580645,-4.0893707 61.6666667,14.609554 51.7204301,14.609554 C41.7741935,14.609554 46.2024883,1.85611695 37.3978495,0.286973383 C32.2400591,-0.63223678 20.69921,12.0996099 11.9354839,14.609554 C5.73903546,16.384226 0.911660682,8.04290517 0.795698925,8.24396263 C-0.880911577,19.1908132 2.75376295,34.1263739 10.344086,43.6525648 C17.1768201,52.2279481 27.3770611,55.9858981 37,55.9858981 Z" transform="translate(0 17.218)"/>
    <ellipse cx="37.597" cy="36.602" stroke="#FFFFFF" stroke-width="3.6" rx="36.403" ry="36.602"/>
  </g>
</svg>
