<svg xmlns="http://www.w3.org/2000/svg" xmlns:xlink="http://www.w3.org/1999/xlink" width="2138" height="212" viewBox="0 0 2138 212">
  <defs>
    <path id="b" d="M61.183925,38.8409245 L44.82445,1.03737736 C44.57645,0.463377358 43.95335,0.147754717 43.341875,0.29009434 L26.79485,4.12475472 C26.7809,4.12784906 26.769275,4.13635849 26.755325,4.13945283 C26.67085,4.16188679 26.59025,4.1920566 26.513525,4.23073585 C26.487175,4.24388679 26.4616,4.25781132 26.436025,4.27250943 C26.364725,4.31428302 26.29885,4.3614717 26.23685,4.41562264 C26.22135,4.42954717 26.203525,4.44037736 26.1888,4.45507547 C26.11595,4.5254717 26.0524,4.60360377 25.997375,4.68869811 C25.984975,4.70803774 25.975675,4.72892453 25.96405,4.74903774 C25.92375,4.81943396 25.890425,4.89369811 25.864075,4.97183019 C25.85865,4.98807547 25.848575,5.00122642 25.843925,5.01669811 C25.84005,5.02984906 25.840825,5.04377358 25.837725,5.05692453 C25.816025,5.13815094 25.803625,5.2224717 25.7982,5.30911321 C25.797425,5.32845283 25.792775,5.34779245 25.792,5.36790566 C25.792,5.37332075 25.79045,5.37873585 25.79045,5.38415094 L25.79045,15.621 L15.30005,8.78096226 C14.8738,8.50324528 14.32355,8.50015094 13.894975,8.77322642 L0.812975,17.0915849 C0.3968,17.3553774 0.1674,17.8334528 0.220875,18.3231321 C0.27435,18.8128113 0.6014,19.2297736 1.06485,19.3984151 L59.6006,40.7207358 C59.643225,40.7362075 59.686625,40.7501321 59.730025,40.7625094 C59.840075,40.7919057 59.951675,40.8058302 60.061725,40.8058302 C60.071025,40.8058302 60.080325,40.8058302 60.089625,40.8058302 C60.79875,40.7980943 61.371475,40.2217736 61.371475,39.5123962 C61.371475,39.2663962 61.303275,39.0366415 61.183925,38.8409245 Z M4.4206,17.8651698 L14.583175,11.4041887 L49.904575,34.4330377 L4.4206,17.8651698 Z M28.384375,17.3120566 L28.384375,8.58988679 L51.160075,32.1610189 L28.384375,17.3120566 Z M29.6081,6.12911321 L42.87455,3.05488679 L56.0449,33.4892642 L29.6081,6.12911321 Z"/>
    <filter id="a" width="145.8%" height="169.1%" x="-22.9%" y="-34.5%" filterUnits="objectBoundingBox">
      <feMorphology in="SourceAlpha" operator="dilate" radius=".5" result="shadowSpreadOuter1"/>
      <feOffset in="shadowSpreadOuter1" result="shadowOffsetOuter1"/>
      <feGaussianBlur in="shadowOffsetOuter1" result="shadowBlurOuter1" stdDeviation="4.5"/>
      <feComposite in="shadowBlurOuter1" in2="SourceAlpha" operator="out" result="shadowBlurOuter1"/>
      <feColorMatrix in="shadowBlurOuter1" values="0 0 0 0 0.0549019608 0 0 0 0 0.858823529 0 0 0 0 0.694117647 0 0 0 0.340749547 0"/>
    </filter>
  </defs>
  <g fill="none" transform="translate(-54 15)">
    <path fill="#0EDBB1" d="M0.332122754,0.470974766 C1.58098418,0.916126889 2.82798411,1.3602027 4.07312254,1.8032022 L4.40832272,0.861055263 C3.16336922,0.418121564 1.91655407,-0.0258884452 0.667877246,-0.470974766 L0.332122754,0.470974766 Z M14.4773698,5.49514298 C15.7296303,5.93832745 16.979976,6.38040482 18.228407,6.82137509 L18.5614606,5.87846717 C17.3132219,5.43756485 16.0630684,4.99555543 14.8109999,4.55243892 L14.4773698,5.49514298 Z M28.5992648,10.474571 C29.8530503,10.9150057 31.1048713,11.3543045 32.3547276,11.7924674 L32.6855577,10.8487771 C31.4359013,10.4106843 30.1842801,9.97145557 28.9306942,9.53109096 L28.5992648,10.474571 Z M42.7745881,15.4349122 C44.0278414,15.8717406 45.2790844,16.3074066 46.528317,16.7419102 L46.8568295,15.7974106 C45.6078046,15.3629792 44.3567691,14.9273855 43.1037231,14.4906293 L42.7745881,15.4349122 Z M56.941751,20.3530488 C58.2093629,20.7912978 59.4748672,21.228328 60.7382638,21.6641397 L61.0643599,20.718803 C59.8011818,20.2830668 58.5358959,19.8461119 57.2685021,19.4079384 L56.941751,20.3530488 Z M71.1478722,25.2437306 C72.4105413,25.6765548 73.6710659,26.108139 74.929446,26.5384833 L75.2530299,25.5922838 C73.9948765,25.1620171 72.7345784,24.7305104 71.4721355,24.2977638 L71.1478722,25.2437306 Z M85.3325023,30.0844985 C86.6041799,30.5165284 87.8736256,30.9472678 89.1408392,31.3767166 L89.4618013,30.4296246 C88.1948257,30.0002564 86.9256179,29.5695977 85.6541778,29.1376485 L85.3325023,30.0844985 Z M99.5412326,34.8892186 C100.803665,35.3140927 102.063838,35.7376608 103.321753,36.1599229 L103.639986,35.2119103 C102.382318,34.789731 101.122391,34.3662457 99.8602046,33.9414544 L99.5412326,34.8892186 Z M113.765792,39.6531075 C115.031855,40.0750069 116.295584,40.4955565 117.556979,40.9147563 L117.87235,39.9657879 C116.611214,39.546674 115.347743,39.1262103 114.081938,38.7043969 L113.765792,39.6531075 Z M127.997789,44.3713119 C129.264598,44.7890805 130.529003,45.2054593 131.791004,45.6204483 L132.103383,44.6704906 C130.841652,44.2555906 129.577517,43.8393008 128.310979,43.4216212 L127.997789,44.3713119 Z M142.278283,49.055077 C143.542835,49.4675236 144.804921,49.8785447 146.064542,50.2881403 L146.373778,49.3371548 C145.11444,48.9276512 143.852636,48.5167222 142.588367,48.1043677 L142.278283,49.055077 Z M156.547606,53.6823949 C157.820423,54.0927261 159.090667,54.5015695 160.358338,54.908925 L160.664273,53.9568723 C159.3969,53.5496129 158.126955,53.1408656 156.854436,52.7306306 L156.547606,53.6823949 Z M170.796973,58.2481846 C172.074319,58.6549308 173.348994,59.0601319 174.620996,59.463788 L174.923471,58.5106304 C173.651783,58.1070744 172.377424,57.7019734 171.100392,57.2953273 L170.796973,58.2481846 Z M185.112161,62.7770521 C186.390027,63.1786502 187.665132,63.5786521 188.937477,63.9770578 L189.236297,63.0227483 C187.964284,62.6244466 186.68951,62.2245488 185.411976,61.8230548 L185.112161,62.7770521 Z M199.43297,67.2466817 C200.707566,67.641687 201.979324,68.0350513 203.248243,68.4267746 L203.543214,67.4712683 C202.274644,67.0796528 201.003235,66.6863964 199.728988,66.2914991 L199.43297,67.2466817 Z M213.793638,71.6643717 C215.072435,72.0547924 216.348277,72.4435041 217.621163,72.8305067 L217.912051,71.8737497 C216.639535,71.4868596 215.364064,71.0982606 214.085636,70.7079527 L213.793638,71.6643717 Z M228.135049,76.008433 C229.413423,76.3925345 230.688738,76.7748671 231.960993,77.1554306 L232.247572,76.197374 C230.975709,75.8169276 229.700785,75.4347124 228.422802,75.0507283 L228.135049,76.008433 Z M242.533585,80.2980368 C243.817032,80.6770783 245.09728,81.0542702 246.37433,81.4296127 L246.656316,80.4701942 C245.379684,80.0949745 244.099853,79.7179054 242.816823,79.3389869 L242.533585,80.2980368 Z M256.928788,84.5107156 C258.211712,84.8826442 259.491317,85.2526532 260.767602,85.6207428 L261.044714,84.6599052 C259.768873,84.2919437 258.489712,83.9220628 257.20723,83.5502626 L256.928788,84.5107156 Z M271.348203,88.649897 C272.634357,89.0153557 273.91704,89.3788073 275.196253,89.7402519 L275.46816,88.7779284 C274.189422,88.4166178 272.907212,88.0533005 271.621531,87.6879762 L271.348203,88.649897 Z M285.774023,92.7052783 C287.065835,93.0644379 288.353998,93.4214876 289.638513,93.7764274 L289.904854,92.8125486 C288.620849,92.4577496 287.333195,92.1008409 286.041891,91.7418226 L285.774023,92.7052783 Z M300.228812,96.6774032 C301.518754,97.0276158 302.804898,97.3756322 304.087245,97.7214522 L304.34762,96.7559449 C303.06582,96.410272 301.780221,96.0624031 300.490822,95.7123381 L300.228812,96.6774032 Z M314.731143,100.564507 C316.027603,100.90741 317.320049,101.247993 318.608482,101.586254 L318.862414,100.619032 C317.574571,100.280926 316.282714,99.9404984 314.986843,99.5977505 L314.731143,100.564507 Z M329.25649,104.352396 C330.550171,104.68484 331.839663,105.01486 333.124965,105.342457 L333.371948,104.373438 C332.087283,104.046002 330.798426,103.716145 329.505378,103.383864 L329.25649,104.352396 Z M343.817658,108.035967 C345.113326,108.358418 346.404576,108.678315 347.691409,108.995657 L347.930843,108.024744 C346.644701,107.707573 345.35414,107.387847 344.05916,107.065567 L343.817658,108.035967 Z M358.385962,111.598616 C359.685808,111.910725 360.980969,112.220124 362.271444,112.526814 L362.50266,111.553912 C361.21294,111.247402 359.918532,110.938182 358.619438,110.626254 L358.385962,111.598616 Z M372.967916,115.031594 C374.271412,115.332191 375.569927,115.629909 376.863463,115.924746 L377.085694,114.949752 C375.792987,114.655104 374.495298,114.357576 373.192628,114.057168 L372.967916,115.031594 Z M387.634955,118.338688 C388.94402,118.626935 390.247758,118.912101 391.546168,119.194186 L391.75847,118.216982 C390.460975,117.935096 389.158151,117.650129 387.849997,117.362083 L387.634955,118.338688 Z M402.275567,121.48038 C403.588938,121.754617 404.8966,122.025551 406.198554,122.293184 L406.399906,121.313665 C405.098969,121.046241 403.792321,120.775517 402.479962,120.501492 L402.275567,121.48038 Z M417.014678,124.466377 C418.330889,124.72457 419.640968,124.979216 420.944915,125.230316 L421.134009,124.248357 C419.831199,123.997477 418.522254,123.743051 417.207173,123.485079 L417.014678,124.466377 Z M431.732215,127.252186 C433.049866,127.492201 434.360912,127.728396 435.665356,127.960771 L435.840736,126.97627 C434.537571,126.744123 433.227799,126.508158 431.91142,126.268374 L431.732215,127.252186 Z M446.528019,129.832969 C447.853487,130.053517 449.17173,130.269885 450.482751,130.482074 L450.642522,129.49492 C449.332961,129.282967 448.016172,129.066837 446.692155,128.846531 L446.528019,129.832969 Z M461.358906,132.17115 C462.687429,132.36849 464.008054,132.561262 465.320782,132.749463 L465.462697,131.759584 C464.151647,131.571623 462.832693,131.379096 461.505835,131.182003 L461.358906,132.17115 Z M476.229009,134.231469 C477.561903,134.402202 478.886074,134.567888 480.201523,134.728526 L480.322739,133.7359 C479.009244,133.575501 477.687018,133.410058 476.356063,133.239573 L476.229009,134.231469 Z M491.12267,135.967156 C492.460128,136.106755 493.787858,136.240724 495.105859,136.36906 L495.202773,135.373768 C493.887081,135.245656 492.561651,135.11192 491.226482,134.972559 L491.12267,135.967156 Z M506.077298,137.324506 C507.418616,137.426913 508.748961,137.522967 510.068334,137.612668 L510.136165,136.614971 C508.81957,136.525459 507.49199,136.429605 506.153425,136.327408 L506.077298,137.324506 Z M521.064478,138.224068 C522.411238,138.281439 523.745406,138.331516 525.06698,138.3743 L525.099336,137.374823 C523.78118,137.332151 522.450415,137.282201 521.107039,137.224974 L521.064478,138.224068 Z M536.101364,138.562388 C537.451388,138.563514 538.786718,138.556125 540.107355,138.540219 L540.095312,137.540292 C538.778991,137.556145 537.447953,137.563511 536.102199,137.562389 L536.101364,138.562388 Z M551.110248,138.193076 C552.461584,138.122283 553.795378,138.041315 555.111631,137.950169 L555.04255,136.952558 C553.731919,137.043314 552.403713,137.123944 551.057933,137.194446 L551.110248,138.193076 Z M566.095656,136.903492 C567.442259,136.737169 568.767324,136.558335 570.070853,136.366988 L569.925618,135.377591 C568.629685,135.567823 567.31217,135.745638 565.973074,135.911034 L566.095656,136.903492 Z M580.940151,134.370395 C582.192104,134.089287 583.419749,133.794029 584.623088,133.484615 C584.731203,133.456803 584.731203,133.456803 584.837911,133.429312 L584.58834,132.460956 C584.481898,132.488378 584.481898,132.488378 584.374053,132.51612 C583.180747,132.822954 581.963084,133.115812 580.721071,133.394688 L580.940151,134.370395 Z M595.483721,130.538371 C596.759143,130.175263 598.044485,129.803614 599.34021,129.423348 L599.058609,128.463817 C597.765458,128.843327 596.48271,129.214225 595.209904,129.57659 L595.483721,130.538371 Z M609.855672,126.221343 C611.119635,125.823262 612.39407,125.417383 613.679579,125.003568 L613.373156,124.051673 C612.089637,124.464847 610.81721,124.870086 609.555272,125.26753 L609.855672,126.221343 Z M624.108431,121.555941 C625.357552,121.132793 626.618052,120.702347 627.890761,120.264365 L627.565357,119.31879 C626.294153,119.756254 625.035172,120.186182 623.787584,120.60881 L624.108431,121.555941 Z M638.30366,116.611347 C639.547958,116.167072 640.80543,115.71551 642.077363,115.256245 L641.737747,114.315681 C640.466921,114.774546 639.210568,115.225706 637.967402,115.669577 L638.30366,116.611347 Z M652.389081,111.482722 C653.623756,111.02538 654.874674,110.560213 656.144112,110.086416 L655.79444,109.149544 C654.525765,109.623056 653.27562,110.087936 652.04173,110.544987 L652.389081,111.482722 Z M666.437172,106.210833 C667.661344,105.746317 668.908168,105.272084 670.182966,104.786146 L669.826779,103.851732 C668.552444,104.337492 667.306092,104.811547 666.082402,105.275879 L666.437172,106.210833 Z M680.451953,100.852684 C681.644805,100.393952 682.878041,99.9191915 684.177204,99.418608 L683.817659,98.4854804 C682.518689,98.9859892 681.285654,99.4606721 680.093012,99.9193237 L680.451953,100.852684 Z M694.439907,95.4586862 C696.029036,94.8451343 697.089397,94.4357919 698.170269,94.0186515 L697.810222,93.0857172 C696.729296,93.5028786 695.668897,93.9122356 694.079727,94.5258033 L694.439907,95.4586862 Z M708.4355,90.0639292 C709.717282,89.5713491 710.9598,89.0944547 712.174634,88.6288374 L711.816744,87.6950735 C710.601627,88.1607996 709.358834,88.6377995 708.076783,89.1304828 L708.4355,90.0639292 Z M722.450172,84.7091692 C723.712195,84.2304005 724.955161,83.7599568 726.182375,83.2966224 L725.82916,82.3610798 C724.601444,82.8246042 723.357983,83.2952351 722.095472,83.774189 L722.450172,84.7091692 Z M736.496995,79.4323854 C737.756231,78.964622 739.003072,78.5030436 740.239045,78.0471179 L739.89296,77.1089145 C738.656269,77.5651053 737.408718,78.0269468 736.148778,78.4949715 L736.496995,79.4323854 Z M750.563962,74.2792798 C751.827614,73.8234472 753.082088,73.3729875 754.328266,72.9276182 L753.991725,71.9859495 C752.744612,72.4316531 751.48921,72.8824459 750.224638,73.3386104 L750.563962,74.2792798 Z M764.719609,69.2656516 C765.986145,68.8259336 767.24543,68.3912626 768.49803,67.9614768 L768.173488,67.0156056 C766.919734,67.4457872 765.659304,67.8808533 764.391632,68.3209661 L764.719609,69.2656516 Z M778.900652,64.4542114 C780.172101,64.0334186 781.437533,63.6176145 782.697341,63.2067033 L782.38725,62.2559967 C781.126065,62.6673568 779.859265,63.0836102 778.586456,63.504853 L778.900652,64.4542114 Z M793.177879,59.8612691 C794.453938,59.4631291 795.724838,59.0700607 796.990867,58.6820082 L796.697813,57.7259125 C795.430178,58.1144573 794.15768,58.5080196 792.880032,58.9066554 L793.177879,59.8612691 Z M807.542561,55.531804 C808.829463,55.1581431 810.111782,54.789779 811.389738,54.4266816 L811.116432,53.4647545 C809.836621,53.8283787 808.552458,54.1972727 807.263721,54.5714666 L807.542561,55.531804 Z M821.985962,51.5107839 C823.278522,51.1669476 824.566956,50.8286553 825.851438,50.4958952 L825.600655,49.5278518 C824.314067,49.8611576 823.023537,50.2000003 821.728891,50.5443916 L821.985962,51.5107839 Z M836.499341,47.843163 C837.801449,47.531997 839.099753,47.2267042 840.394395,46.9272856 L840.169067,45.9530025 C838.872049,46.2529708 837.571378,46.5588201 836.266915,46.870549 L836.499341,47.843163 Z M851.129163,44.562332 C852.436451,44.2889711 853.740204,44.0218122 855.040536,43.7608662 L854.843783,42.7804132 C853.540798,43.0418915 852.234403,43.3095917 850.924484,43.5835027 L851.129163,44.562332 Z M865.839541,41.7234006 C867.156391,41.4910722 868.46989,41.2653493 869.780132,41.0462505 L869.615202,40.0599452 C868.30201,40.2795372 866.985574,40.505765 865.665797,40.7386098 L865.839541,41.7234006 Z M880.649641,39.3707842 C881.972868,39.1844454 883.292894,39.0051142 884.609801,38.8328155 L884.480071,37.8412662 C883.159913,38.0139901 881.836649,38.1937612 880.510195,38.3805545 L880.649641,39.3707842 Z M895.523122,37.5593473 C896.852258,37.4233893 898.178309,37.2948623 899.501345,37.1737957 L899.410219,36.1779563 C898.083627,36.2993483 896.754031,36.4282189 895.421362,36.5645383 L895.523122,37.5593473 Z M910.451168,36.3386865 C911.783366,36.2577326 913.112576,36.1846239 914.438856,36.1193937 L914.389733,35.120601 C913.059598,35.1860208 911.726544,35.2593409 910.390513,35.3405278 L910.451168,36.3386865 Z M925.424901,35.7589083 C926.759346,35.737325 928.090877,35.7240117 929.419543,35.7190048 L929.415774,34.7190119 C928.082964,34.7240344 926.747299,34.7373891 925.408729,34.7590391 L925.424901,35.7589083 Z M940.379577,35.8688795 C941.712071,35.9107128 943.041719,35.9612043 944.368563,36.0203928 L944.413127,35.0213863 C943.081881,34.9620014 941.747838,34.911343 940.410956,34.8693719 L940.379577,35.8688795 Z M955.362053,36.7158311 C956.690095,36.8249952 958.015349,36.9431863 959.337851,37.0704448 L959.433634,36.0750425 C958.106507,35.947339 956.776633,35.8287359 955.443976,35.7191924 L955.362053,36.7158311 Z M970.251928,38.3357398 C971.572443,38.5152466 972.890224,38.704114 974.205301,38.9023837 L974.354383,37.9135588 C973.034509,37.714566 971.711934,37.5250114 970.386627,37.3448531 L970.251928,38.3357398 Z M985.012907,40.7559322 C986.320343,41.0076756 987.625106,41.2690358 988.927225,41.5400548 L989.130995,40.561036 C987.823979,40.2889978 986.514317,40.0266564 985.201981,39.7739694 L985.012907,40.7559322 Z M999.637036,44.0027284 C1000.92756,44.3280302 1002.21548,44.6631448 1003.50081,45.0081137 L1003.76002,44.0422942 C1002.46977,43.6960035 1001.17692,43.359606 999.88146,43.0330599 L999.637036,44.0027284 Z M1014.06138,48.0831965 C1014.99051,48.3752277 1015.91829,48.6725816 1016.84471,48.9752744 C1017.1827,49.0857074 1017.52081,49.1959914 1017.85903,49.3061265 L1018.16866,48.3552689 C1017.83075,48.2452367 1017.49296,48.1350556 1017.15529,48.0247256 C1016.22529,47.7208656 1015.29394,47.4223651 1014.36122,47.129208 L1014.06138,48.0831965 Z M1028.34673,52.6615411 C1029.61798,53.0610302 1030.8908,53.4583837 1032.16523,53.8535958 L1032.46142,52.8984681 C1031.1882,52.5036288 1029.91658,52.10665 1028.64653,51.7075372 L1028.34673,52.6615411 Z M1042.69391,57.0586521 C1043.96717,57.4389989 1045.24195,57.8171755 1046.51829,58.1931744 L1046.80088,57.2339319 C1045.52575,56.8582909 1044.25218,56.4804741 1042.98013,56.1004888 L1042.69391,57.0586521 Z M1057.12015,61.2558291 C1058.40184,61.6187706 1059.68503,61.979487 1060.96973,62.3379697 L1061.2385,61.3747658 C1059.95503,61.0166267 1058.67308,60.6562561 1057.39261,60.2936621 L1057.12015,61.2558291 Z M1071.58512,65.2396893 C1072.87253,65.5842895 1074.16139,65.9266209 1075.45172,66.2666748 L1075.70656,65.2996913 C1074.41747,64.9599654 1073.12985,64.617964 1071.84369,64.273696 L1071.58512,65.2396893 Z M1086.11453,69.0161873 C1087.4051,69.3416543 1088.69708,69.6648205 1089.99046,69.9856769 L1090.23124,69.0150963 C1088.93911,68.6945509 1087.64839,68.3716978 1086.35906,68.0465461 L1086.11453,69.0161873 Z M1100.67625,72.576103 C1101.9768,72.8840343 1103.27871,73.1896105 1104.582,73.4928225 L1104.8086,72.5188346 C1103.50658,72.2159177 1102.20593,71.9106387 1100.90665,71.603007 L1100.67625,72.576103 Z M1115.30708,75.9275312 C1116.60602,76.2150902 1117.90627,76.5002842 1119.20783,76.7831039 L1119.42017,75.8059076 C1118.11988,75.5233641 1116.8209,75.2384485 1115.52322,74.9511701 L1115.30708,75.9275312 Z M1129.98194,79.0635915 C1131.28613,79.3323123 1132.59158,79.598635 1133.8983,79.8625505 L1134.09627,78.8823426 C1132.79083,78.6186855 1131.48666,78.3526235 1130.18374,78.0841656 L1129.98194,79.0635915 Z M1144.71201,81.9858788 C1146.01915,82.2352165 1147.32749,82.4821333 1148.63705,82.7266204 L1148.82058,81.7436049 C1147.5123,81.4993577 1146.20524,81.2526831 1144.89939,81.00359 L1144.71201,81.9858788 Z M1159.47609,84.6896167 C1160.79274,84.920721 1162.11057,85.1493587 1163.42959,85.375521 L1163.59859,84.3899044 C1162.28087,84.1639643 1160.96433,83.9355513 1159.64897,83.704674 L1159.47609,84.6896167 Z M1174.2536,87.171411 C1175.56865,87.3823193 1176.88483,87.5907583 1178.20214,87.7967197 L1178.35661,86.8087227 C1177.0406,86.6029639 1175.72571,86.3947299 1174.41195,86.184029 L1174.2536,87.171411 Z M1189.09991,89.4401189 C1190.4197,89.6318331 1191.74058,89.8210528 1193.06255,90.0077698 L1193.2024,89.0175976 C1191.88173,88.8310643 1190.56216,88.6420308 1189.24366,88.4505053 L1189.09991,89.4401189 Z M1203.96154,91.4870491 C1205.28366,91.6592139 1206.60682,91.8288693 1207.93104,91.9960074 L1208.05626,91.0038788 C1206.73335,90.8369051 1205.41149,90.6674166 1204.09067,90.4954213 L1203.96154,91.4870491 Z M1218.86073,93.3154238 C1220.18273,93.467756 1221.50574,93.6175741 1222.82976,93.7648707 L1222.94033,92.771002 C1221.61761,92.6238504 1220.2959,92.4741795 1218.9752,92.3219972 L1218.86073,93.3154238 Z M1233.78317,94.9234266 C1235.11072,95.0565807 1236.43925,95.1871955 1237.76876,95.3152636 L1237.86464,94.319871 C1236.53644,94.1919288 1235.20922,94.0614423 1233.88297,93.928419 L1233.78317,94.9234266 Z M1248.71493,96.3100873 C1250.04529,96.4237616 1251.37659,96.5348824 1252.70884,96.6434425 L1252.79005,95.6467461 C1251.45911,95.5382925 1250.12912,95.4272807 1248.80006,95.313718 L1248.71493,96.3100873 Z M1263.68343,97.4781404 C1265.01378,97.5721096 1266.34503,97.6635228 1267.67719,97.752373 L1267.74374,96.7545898 C1266.41288,96.6658266 1265.08293,96.5745029 1263.75389,96.4806258 L1263.68343,97.4781404 Z M1278.67734,98.426488 C1280.00485,98.500663 1281.33323,98.5722909 1282.66249,98.641365 L1282.71438,97.6427124 C1281.38643,97.5737058 1280.05934,97.5021479 1278.73313,97.4280454 L1278.67734,98.426488 Z M1293.64338,99.1529326 C1294.97267,99.2077203 1296.30279,99.2599526 1297.63376,99.309623 L1297.67105,98.3103187 C1296.34138,98.2606966 1295.01255,98.2085152 1293.68456,98.1537809 L1293.64338,99.1529326 Z M1308.6546,99.6617114 C1309.98947,99.6971951 1311.32516,99.7301009 1312.66166,99.7604225 L1312.68434,98.7606797 C1311.34914,98.7303876 1310.01475,98.6975138 1308.68117,98.6620646 L1308.6546,99.6617114 Z M1323.65885,99.9512425 C1324.98874,99.9672303 1326.3194,99.9806588 1327.65085,99.9915221 L1327.659,98.9915553 C1326.32885,98.9807026 1324.99947,98.9672871 1323.67088,98.9513147 L1323.65885,99.9512425 Z M1338.68985,100.022725 C1340.02478,100.019387 1341.36047,100.01347 1342.69692,100.004969 L1342.69056,99.0049888 C1341.3554,99.0134822 1340.021,99.0193932 1338.68735,99.0227277 L1338.68985,100.022725 Z M1353.69471,99.8768271 C1355.03055,99.8542025 1356.36713,99.8289955 1357.70444,99.8012004 L1357.68366,98.8014163 C1356.34763,98.8291848 1355.01234,98.8543676 1353.67778,98.8769705 L1353.69471,99.8768271 Z M1368.70871,99.5144663 C1370.04117,99.4727287 1371.37433,99.428422 1372.7082,99.3815408 L1372.67307,98.3821579 C1371.34048,98.4289944 1370.00859,98.4732587 1368.67741,98.5149565 L1368.70871,99.5144663 Z M1383.67828,98.9385403 C1385.00919,98.8778326 1386.34079,98.8145622 1387.67306,98.748724 L1387.6237,97.7499428 C1386.29269,97.8157186 1384.96236,97.8789289 1383.63271,97.939579 L1383.67828,98.9385403 Z M1398.68637,98.146789 C1400.01653,98.0671282 1401.34735,97.9849083 1402.67883,97.9001244 L1402.61528,96.9021456 C1401.28506,96.9868496 1399.9555,97.0689918 1398.62658,97.1485775 L1398.68637,98.146789 Z M1413.6336,97.145693 C1414.96338,97.0472159 1416.2938,96.9461822 1417.62485,96.8425869 L1417.54726,95.8456019 C1416.21745,95.9491001 1414.88828,96.0500391 1413.55974,96.1484238 L1413.6336,97.145693 Z M1428.60538,95.9310288 C1429.93403,95.8138449 1431.26329,95.6941097 1432.59316,95.5718185 L1432.50159,94.5760199 C1431.17295,94.6981973 1429.84494,94.817821 1428.51753,94.9348957 L1428.60538,95.9310288 Z M1443.5483,94.5079075 C1444.87443,94.3722851 1446.20115,94.2341223 1447.52845,94.0934143 L1447.42304,93.0989864 C1446.09695,93.2395643 1444.77146,93.3775994 1443.44656,93.5130964 L1443.5483,94.5079075 Z M1458.45522,92.8790235 C1459.78145,92.7248305 1461.10824,92.5680979 1462.43561,92.4088211 L1462.31647,91.4159436 C1460.99032,91.5750743 1459.66474,91.7316631 1458.33974,91.8857145 L1458.45522,92.8790235 Z M1473.36787,91.0410684 C1474.69045,90.8688348 1476.01359,90.6940766 1477.33727,90.5167897 L1477.20452,89.52564 C1475.88204,89.7027656 1474.56012,89.8773646 1473.23874,90.0494414 L1473.36787,91.0410684 Z M1488.23173,89.002239 C1489.5506,88.8121878 1490.86999,88.6196276 1492.18991,88.4245543 L1492.0437,87.4352998 C1490.72498,87.630197 1489.40678,87.8225833 1488.08911,88.0124628 L1488.23173,89.002239 Z M1503.04015,86.7661636 C1504.3576,86.5581477 1505.67556,86.3476296 1506.99404,86.1346051 L1506.83454,85.1474072 C1505.51724,85.3602411 1504.20046,85.5705708 1502.88419,85.7784003 L1503.04015,86.7661636 Z M1517.88669,84.3195841 C1519.20198,84.0937677 1520.51778,83.8654585 1521.83407,83.6346526 L1521.66135,82.6496801 C1520.34623,82.8802813 1519.03161,83.1083879 1517.71748,83.3340039 L1517.88669,84.3195841 Z M1532.61618,81.690179 C1533.92701,81.4472341 1535.23832,81.2018148 1536.55011,80.9539172 L1536.36442,79.971309 C1535.05379,80.2189888 1533.74363,80.4641924 1532.43395,80.7069236 L1532.61618,81.690179 Z M1547.37385,78.8543054 C1548.68077,78.5942479 1549.98815,78.331732 1551.296,78.0667541 L1551.09742,77.0866679 C1549.79072,77.3514153 1548.48447,77.6137027 1547.17869,77.8735337 L1547.37385,78.8543054 Z M1562.1048,75.8229044 C1563.40738,75.5460022 1564.7104,75.2666594 1566.01386,74.9848723 L1565.80256,74.0074515 C1564.50022,74.2889959 1563.19832,74.5680981 1561.89687,74.8447615 L1562.1048,75.8229044 Z M1576.75251,72.6102462 C1578.05361,72.3161033 1579.35514,72.0195266 1580.6571,71.7205126 L1580.43326,70.7458862 C1579.13241,71.0446453 1577.83199,71.3409691 1576.532,71.634861 L1576.75251,72.6102462 Z M1591.36329,69.20898 C1592.66012,68.8983808 1593.95736,68.5853652 1595.25502,68.2699298 L1595.01881,67.298226 C1593.72225,67.6133955 1592.4261,67.926147 1591.13037,68.2364839 L1591.36329,69.20898 Z M1605.9326,65.6220861 C1607.22426,65.295453 1608.51631,64.966424 1609.80876,64.6349958 L1609.56036,63.6663375 C1608.26899,63.9974894 1606.97801,64.3262438 1605.68744,64.6526041 L1605.9326,65.6220861 Z M1620.45601,61.8527327 C1621.7432,61.5100956 1623.03077,61.1650805 1624.31873,60.817684 L1624.05831,59.8521884 C1622.77141,60.1992985 1621.4849,60.544029 1620.19877,60.8863831 L1620.45601,61.8527327 Z M1634.92915,57.9042682 C1636.21269,57.5456022 1637.49661,57.1845726 1638.7809,56.8211765 L1638.50863,55.8589544 C1637.22539,56.2220543 1635.94252,56.5827894 1634.66002,56.9411627 L1634.92915,57.9042682 Z M1649.34776,53.780215 C1650.62733,53.4057992 1651.90727,53.0290357 1653.18756,52.6499215 L1652.90363,51.6910761 C1651.62437,52.0698849 1650.34547,52.4463448 1649.06692,52.8204586 L1649.34776,53.780215 Z M1663.76183,49.4676984 C1665.0366,49.0779206 1666.31171,48.6858139 1667.58717,48.2913753 L1667.29172,47.3360162 C1666.01728,47.7301408 1664.74318,48.1219353 1663.46943,48.5114025 L1663.76183,49.4676984 Z M1678.05929,45.0028689 C1679.32935,44.5979798 1680.59974,44.1907801 1681.87046,43.781267 L1681.56373,42.8294713 C1680.294,43.2386626 1679.02461,43.645542 1677.75556,44.0501124 L1678.05929,45.0028689 Z M1692.34485,40.3557662 C1693.60974,39.9360689 1694.87496,39.5140808 1696.14051,39.0897992 L1695.82264,38.1416644 C1694.55808,38.5656168 1693.29384,38.9872771 1692.02993,39.4066481 L1692.34485,40.3557662 Z M1706.56037,35.5470929 C1707.82042,35.1127117 1709.08078,34.6760582 1710.34145,34.2371298 L1710.01264,33.2927339 C1708.75293,33.731326 1707.49354,34.1676447 1706.23445,34.6016925 L1706.56037,35.5470929 Z M1720.76763,30.6749047 C1722.03795,30.2514967 1723.30292,29.8338568 1724.56258,29.4219711 L1724.25179,28.4714924 C1722.99032,28.8839706 1721.72354,29.3022067 1720.45143,29.726215 L1720.76763,30.6749047 Z M1734.99478,26.1046645 C1736.2797,25.7078905 1737.55887,25.3173535 1738.83233,24.9330371 L1738.54341,23.9756837 C1737.26791,24.3606183 1735.98669,24.7517788 1734.69973,25.1491813 L1734.99478,26.1046645 Z M1749.41584,21.8449603 C1750.70478,21.4820765 1751.98762,21.1258502 1753.26439,20.7762628 L1753.0003,19.8117637 C1751.72122,20.1619843 1750.43608,20.5188507 1749.14484,20.8823812 L1749.41584,21.8449603 Z M1763.85634,17.9931329 C1765.15442,17.6667495 1766.44596,17.347553 1767.73099,17.0355224 L1767.49503,16.0637605 C1766.20736,16.3764312 1764.9132,16.6962769 1763.61249,17.0233186 L1763.85634,17.9931329 Z M1778.47733,14.5597699 C1779.7858,14.2750392 1781.08721,13.9981166 1782.38159,13.7289775 L1782.17802,12.749918 C1780.88061,13.0196869 1779.57618,13.2972519 1778.2647,13.5826371 L1778.47733,14.5597699 Z M1793.13811,11.6421127 C1794.45609,11.4052834 1795.76644,11.1769622 1797.06921,10.9571208 L1796.90281,9.97106199 C1795.59655,10.191494 1794.28271,10.4204227 1792.96125,10.6578764 L1793.13811,11.6421127 Z M1807.95298,9.29316045 C1809.27593,9.11254124 1810.59065,8.94118063 1811.89721,8.77904563 L1811.77406,7.78665738 C1810.46345,7.94929568 1809.14468,8.12118305 1807.81771,8.30235211 L1807.95298,9.29316045 Z M1822.8386,7.61963553 C1824.17052,7.50344717 1825.49349,7.39745498 1826.80759,7.30162018 L1826.73485,6.30426888 C1825.41601,6.40044927 1824.08832,6.50681985 1822.7517,6.62341884 L1822.8386,7.61963553 Z M1837.77725,6.73041402 C1839.11661,6.68960742 1840.44623,6.66007807 1841.76621,6.64178043 L1841.75235,5.6418765 C1840.42683,5.66025102 1839.09167,5.68990321 1837.7468,5.73087782 L1837.77725,6.73041402 Z M1852.72732,6.75472198 C1854.06758,6.80216833 1855.39729,6.86205744 1856.71659,6.93433676 L1856.77129,5.93583416 C1855.44554,5.86320116 1854.10938,5.80302191 1852.7627,5.75534801 L1852.72732,6.75472198 Z M1867.65635,7.84301989 C1868.98629,7.99265142 1870.305,8.15589566 1871.61262,8.33269432 L1871.74661,7.34171121 C1870.43158,7.16391197 1869.10548,6.99975235 1867.76815,6.84928965 L1867.65635,7.84301989 Z M1882.44696,10.1571899 C1883.75937,10.4236831 1885.05995,10.7050325 1886.34888,11.0011771 L1886.5728,10.0265708 C1885.27557,9.72851907 1883.96669,9.44537185 1882.64596,9.17718949 L1882.44696,10.1571899 Z M1896.95351,13.8500558 C1898.23098,14.2452067 1899.49639,14.6562698 1900.74999,15.0831899 L1901.07236,14.1365779 C1899.80985,13.7066198 1898.53548,13.2926472 1897.24902,12.8947155 L1896.95351,13.8500558 Z M1910.97498,19.0269313 C1912.19607,19.5555923 1913.40546,20.1008177 1914.60348,20.6625756 L1915.02803,19.7571712 C1913.821,19.1911863 1912.60252,18.6418662 1911.37228,18.1092447 L1910.97498,19.0269313 Z M1924.31908,25.7195338 C1925.47228,26.3819451 1926.61473,27.0613011 1927.74683,27.7576205 L1928.27074,26.9058423 C1927.13013,26.2042891 1925.97907,25.5198159 1924.81717,24.8524068 L1924.31908,25.7195338 Z M1936.84665,33.8777263 C1937.9171,34.6616517 1938.97852,35.4624234 1940.03142,36.2801574 L1940.64481,35.4903735 C1939.5845,34.6668879 1938.51556,33.8604466 1937.43749,33.0709365 L1936.84665,33.8777263 Z M1948.42744,43.3168351 C1949.40949,44.2020544 1950.38495,45.1037528 1951.35446,46.0222218 L1952.0422,45.2962647 C1951.06673,44.372147 1950.0852,43.4648412 1949.09698,42.5740573 L1948.42744,43.3168351 Z M1959.07325,53.8164394 C1959.97348,54.7824497 1960.87017,55.7648181 1961.76421,56.7641729 L1962.5095,56.0974255 C1961.61097,55.0930613 1960.70971,54.1056897 1959.80483,53.1346816 L1959.07325,53.8164394 Z M1968.88194,65.1395992 C1969.71129,66.1638348 1970.54104,67.205177 1971.37258,68.2649985 L1972.15932,67.647716 C1971.32465,66.5839106 1970.49172,65.5385664 1969.65911,64.5103063 L1968.88194,65.1395992 Z M1977.98462,77.0197153 C1978.75756,78.079484 1979.5366,79.1595788 1980.32462,80.2635686 L1981.13855,79.6825975 C1980.34858,78.5758779 1979.56754,77.4930206 1978.79256,76.4304485 L1977.98462,77.0197153 Z M1986.61035,89.2847708 C1987.33797,90.3507405 1988.08329,91.448973 1988.85787,92.5960525 L1989.68662,92.0364311 C1988.91114,90.8880115 1988.16488,89.7884026 1987.43628,88.7210003 L1986.61035,89.2847708 Z M1994.97739,101.739679 C1996.08607,103.404787 1996.63641,104.231215 1997.1929,105.066203 L1998.02503,104.511618 C1997.46866,103.676812 1996.91844,102.850565 1995.80973,101.185411 L1994.97739,101.739679 Z M2003.33714,114.216294 C2004.11384,115.359526 2004.86408,116.456941 2005.59711,117.521619 L2006.42077,116.954533 C2005.68895,115.891615 2004.93988,114.795899 2004.16429,113.654325 L2003.33714,114.216294 Z M2011.943,126.510194 C2012.74344,127.611044 2013.53437,128.684906 2014.3186,129.735146 L2015.11986,129.136832 C2014.33821,128.090046 2013.54979,127.019589 2012.7518,125.922106 L2011.943,126.510194 Z M2021.08478,138.40771 C2021.94351,139.456345 2022.80008,140.481665 2023.65604,141.485058 L2024.41683,140.836057 C2023.56527,139.837828 2022.713,138.81765 2021.85846,137.774138 L2021.08478,138.40771 Z M2031.08767,149.65477 C2032.03155,150.622892 2032.97865,151.567738 2033.93004,152.489948 L2034.62605,151.771916 C2033.68148,150.856322 2032.74105,149.918124 2031.80369,148.956684 L2031.08767,149.65477 Z M2042.19609,159.838273 C2043.24338,160.686778 2044.29844,161.510933 2045.3621,162.310997 L2045.96322,161.511833 C2044.90921,160.719036 2043.86362,159.902272 2042.82559,159.061279 L2042.19609,159.838273 Z M2054.54487,168.48581 C2055.69871,169.173195 2056.86394,169.83536 2058.04125,170.472346 L2058.51711,169.592829 C2057.35197,168.962422 2056.19872,168.307065 2055.05667,167.626706 L2054.54487,168.48581 Z M2068.04899,175.159471 C2069.29012,175.654913 2070.54488,176.12545 2071.8138,176.571018 L2072.14511,175.627496 C2070.88944,175.186582 2069.64783,174.720974 2068.41973,174.230733 L2068.04899,175.159471 Z M2082.43528,179.637862 C2083.73209,179.93565 2085.04324,180.210151 2086.36912,180.461262 L2086.5552,179.478728 C2085.24192,179.230003 2083.94335,178.958135 2082.65909,178.663228 L2082.43528,179.637862 Z M2097.31547,182.00411 C2098.6688,182.132556 2100.00608,182.235507 2101.3273,182.313114 L2101.38594,181.314835 C2100.07675,181.237934 2098.75141,181.135903 2097.40995,181.008584 L2097.31547,182.00411 Z M2112.38946,182.353879 C2113.74963,182.278767 2115.08957,182.173091 2116.40923,182.037091 L2116.30671,181.04236 C2115.00289,181.176728 2113.67875,181.281157 2112.33433,181.3554 L2112.38946,182.353879 Z M2127.289,180.117172 C2128.60532,179.779497 2129.89653,179.406424 2131.16254,178.998341 L2130.85575,178.046565 C2129.60906,178.448419 2128.3373,178.815874 2127.04052,179.148536 L2127.289,180.117172 Z M2141.4073,174.645061 C2142.59539,174.003479 2143.75398,173.324197 2144.88294,172.60783 L2144.34716,171.763471 C2143.23798,172.467284 2142.09961,173.134711 2140.93214,173.76516 L2141.4073,174.645061 Z M2153.61553,165.779194 C2154.58849,164.851337 2155.52979,163.888135 2156.43925,162.890462 L2155.70023,162.216779 C2154.80642,163.197284 2153.88142,164.143806 2152.9254,165.055513 L2153.61553,165.779194 Z M2163.11883,154.052076 C2163.82578,152.920333 2164.50204,151.760137 2165.14747,150.572575 L2164.26885,150.095052 C2163.633,151.264991 2162.9669,152.407756 2162.2707,153.52229 L2163.11883,154.052076 Z M2169.67992,140.425767 C2170.13153,139.173268 2170.55462,137.900539 2170.94911,136.608865 L2169.99272,136.316773 C2169.60304,137.592714 2169.18516,138.84974 2168.7392,140.086578 L2169.67992,140.425767 Z M2173.50714,125.81217 C2173.73477,124.498789 2173.93598,123.173342 2174.11078,121.837336 L2173.11923,121.707606 C2172.94622,123.029956 2172.74708,124.341722 2172.52183,125.641403 L2173.50714,125.81217 Z M2174.94841,110.825682 C2174.97951,109.488736 2174.98574,108.147872 2174.96727,106.80486 L2173.96736,106.818616 C2173.98567,108.149324 2173.97949,109.477849 2173.94868,110.802427 L2174.94841,110.825682 Z M2174.26719,95.8026804 C2174.11566,94.4681732 2173.94027,93.1386971 2173.74138,91.8163081 L2172.75251,91.9650356 C2172.9496,93.2754836 2173.12341,94.5929885 2173.27357,95.9154999 L2174.26719,95.8026804 Z M2171.53825,80.9677513 C2171.20043,79.6594562 2170.83923,78.3673636 2170.45533,77.093835 L2169.49788,77.3824538 C2169.87791,78.6431397 2170.23552,79.9223618 2170.57001,81.217766 L2171.53825,80.9677513 Z M2166.64795,66.7401518 C2166.09738,65.4935521 2165.52344,64.2791649 2164.92726,63.0996531 L2164.03479,63.5507511 C2164.62306,64.7146284 2165.18958,65.9133141 2165.73319,67.1441578 L2166.64795,66.7401518 Z M2159.09402,53.6319207 C2158.26233,52.5301921 2157.40693,51.4878611 2156.52963,50.5078846 L2155.78457,51.1748819 C2156.64302,52.133804 2157.48076,53.1546124 2158.2959,54.2344175 L2159.09402,53.6319207 Z M2147.94063,43.3624118 C2146.73556,42.6680391 2145.50889,42.0793336 2144.26339,41.59929 L2143.90375,42.5323829 C2145.10037,42.9935873 2146.28045,43.5599298 2147.44137,44.2288646 L2147.94063,43.3624118 Z M2133.11838,40.2246129 C2131.7944,40.393095 2130.46292,40.6769585 2129.12601,41.0772535 L2129.41284,42.0352332 C2130.69766,41.650538 2131.97545,41.37812 2133.24462,41.2166131 L2133.11838,40.2246129 Z M2119.2835,46.0934722 C2118.42147,46.7144999 2117.55964,47.3834769 2116.69833,48.1005461 L2117.33815,48.8690709 C2118.18174,48.1667586 2119.02515,47.5120789 2119.86803,46.904841 L2119.2835,46.0934722 Z"/>
    <g transform="scale(-1 1) rotate(-4 -360.548 30527.292)">
      <use fill="black" filter="url(#a)" xlink:href="#b"/>
      <use fill="#0EDBB1" fill-rule="evenodd" stroke="#0F1023" stroke-opacity="0" xlink:href="#b"/>
    </g>
  </g>
</svg>
