<svg xmlns="http://www.w3.org/2000/svg" xmlns:xlink="http://www.w3.org/1999/xlink" width="39" height="39" viewBox="0 0 39 39">
  <defs>
    <ellipse id="b" cx="12.941" cy="12.735" rx="12.941" ry="12.735"/>
    <filter id="a" width="160.3%" height="161.2%" x="-30.1%" y="-30.6%" filterUnits="objectBoundingBox">
      <feMorphology in="SourceAlpha" operator="dilate" radius=".3" result="shadowSpreadOuter1"/>
      <feOffset in="shadowSpreadOuter1" result="shadowOffsetOuter1"/>
      <feGaussianBlur in="shadowOffsetOuter1" result="shadowBlurOuter1" stdDeviation="2.5"/>
      <feComposite in="shadowBlurOuter1" in2="SourceAlpha" operator="out" result="shadowBlurOuter1"/>
      <feColorMatrix in="shadowBlurOuter1" values="0 0 0 0 0.0588235294 0 0 0 0 0.850980392 0 0 0 0 0.717647059 0 0 0 0.379104393 0"/>
    </filter>
  </defs>
  <g fill="none" fill-rule="evenodd" transform="translate(6.059 6.53)">
    <use fill="black" filter="url(#a)" xlink:href="#b"/>
    <use fill="#030413" stroke="#0FD9B7" stroke-width=".6" xlink:href="#b"/>
    <g fill-rule="nonzero" transform="translate(4.111 3.95)">
      <ellipse cx="8.834" cy="8.693" fill="#55ACEE" rx="8.834" ry="8.693"/>
      <path fill="#F1F2F2" d="M14.2448998,6.24726892 C13.8663417,6.41245368 13.4591242,6.52417807 13.0320653,6.57407441 C13.4680999,6.31699982 13.8027238,5.91023623 13.9606663,5.4247542 C13.5526614,5.66292397 13.1005648,5.83570164 12.6198087,5.92883114 C12.2346369,5.5251667 11.6858537,5.27289579 11.0781767,5.27289579 C9.91226835,5.27289579 8.96666059,6.20341593 8.96666059,7.35072169 C8.96666059,7.51358208 8.98539953,7.67210367 9.02161765,7.82427199 C7.26677121,7.73765071 5.71080947,6.91048727 4.66930245,5.65300668 C4.48758199,5.95982265 4.3833368,6.31699982 4.3833368,6.69773054 C4.3833368,7.41843814 4.75638339,8.05469388 5.32264576,8.42721185 C4.97668402,8.41651978 4.65087845,8.32308037 4.36633004,8.16703811 C4.36617257,8.17587069 4.36617257,8.18470327 4.36617257,8.19338089 C4.36617257,9.20014015 5.09431416,10.0398552 6.06007808,10.2306079 C5.88308173,10.2783348 5.69616476,10.3035929 5.50389381,10.3035929 C5.36752473,10.3035929 5.23540734,10.2907314 5.10659682,10.2665581 C5.37524076,11.091862 6.15487507,11.6926325 7.07906689,11.7095228 C6.35627928,12.2669052 5.44594482,12.5989792 4.45640292,12.5989792 C4.28633524,12.5989792 4.11784227,12.5892169 3.95297111,12.5698472 C4.88692608,13.1596157 5.99709006,13.5034665 7.18945341,13.5034665 C11.0732952,13.5034665 13.1972514,10.3373737 13.1972514,7.59137078 C13.1972514,7.50134044 13.1952043,7.41162001 13.1911101,7.32267437 C13.6039966,7.02980459 13.9619261,6.66394979 14.2448998,6.24726892 L14.2448998,6.24726892 Z"/>
    </g>
  </g>
</svg>
